<?xml version="1.0" encoding="utf-8" standalone="no"?>
<!DOCTYPE svg PUBLIC "-//W3C//DTD SVG 1.1//EN"
  "http://www.w3.org/Graphics/SVG/1.1/DTD/svg11.dtd">
<!-- Created with matplotlib (http://matplotlib.org/) -->
<svg height="288pt" version="1.1" viewBox="0 0 432 288" width="432pt" xmlns="http://www.w3.org/2000/svg" xmlns:xlink="http://www.w3.org/1999/xlink">
 <defs>
  <style type="text/css">
*{stroke-linecap:butt;stroke-linejoin:round;}
  </style>
 </defs>
 <g id="figure_1">
  <g id="patch_1">
   <path d="M 0 288 
L 432 288 
L 432 0 
L 0 0 
z
" style="fill:#ffffff;"/>
  </g>
  <g id="axes_1">
   <g id="LineCollection_1">
    <path clip-path="url(#pfbc15184d8)" d="M 79.300207 118.207121 
L 137.942273 97.100415 
" style="fill:none;stroke:#000000;stroke-opacity:0.5;"/>
    <path clip-path="url(#pfbc15184d8)" d="M 79.300207 118.207121 
L 164.495107 161.243341 
" style="fill:none;stroke:#000000;stroke-opacity:0.5;"/>
    <path clip-path="url(#pfbc15184d8)" d="M 220.774331 24.991736 
L 137.942273 97.100415 
" style="fill:none;stroke:#000000;stroke-opacity:0.5;"/>
    <path clip-path="url(#pfbc15184d8)" d="M 53.552756 95.407752 
L 137.942273 97.100415 
" style="fill:none;stroke:#000000;stroke-opacity:0.5;"/>
    <path clip-path="url(#pfbc15184d8)" d="M 53.552756 95.407752 
L 164.495107 161.243341 
" style="fill:none;stroke:#000000;stroke-opacity:0.5;"/>
    <path clip-path="url(#pfbc15184d8)" d="M 260.374066 219.523421 
L 164.495107 161.243341 
" style="fill:none;stroke:#000000;stroke-opacity:0.5;"/>
    <path clip-path="url(#pfbc15184d8)" d="M 260.374066 219.523421 
L 319.291251 190.204409 
" style="fill:none;stroke:#000000;stroke-opacity:0.5;"/>
    <path clip-path="url(#pfbc15184d8)" d="M 37.487603 130.426042 
L 137.942273 97.100415 
" style="fill:none;stroke:#000000;stroke-opacity:0.5;"/>
    <path clip-path="url(#pfbc15184d8)" d="M 82.463595 70.23834 
L 137.942273 97.100415 
" style="fill:none;stroke:#000000;stroke-opacity:0.5;"/>
    <path clip-path="url(#pfbc15184d8)" d="M 82.463595 70.23834 
L 164.495107 161.243341 
" style="fill:none;stroke:#000000;stroke-opacity:0.5;"/>
    <path clip-path="url(#pfbc15184d8)" d="M 221.350414 100.212259 
L 137.942273 97.100415 
" style="fill:none;stroke:#000000;stroke-opacity:0.5;"/>
    <path clip-path="url(#pfbc15184d8)" d="M 221.350414 100.212259 
L 164.495107 161.243341 
" style="fill:none;stroke:#000000;stroke-opacity:0.5;"/>
    <path clip-path="url(#pfbc15184d8)" d="M 293.753988 252.95443 
L 220.360195 263.008264 
" style="fill:none;stroke:#000000;stroke-opacity:0.5;"/>
    <path clip-path="url(#pfbc15184d8)" d="M 47.218071 170.471783 
L 137.942273 97.100415 
" style="fill:none;stroke:#000000;stroke-opacity:0.5;"/>
    <path clip-path="url(#pfbc15184d8)" d="M 47.218071 170.471783 
L 164.495107 161.243341 
" style="fill:none;stroke:#000000;stroke-opacity:0.5;"/>
    <path clip-path="url(#pfbc15184d8)" d="M 377.365034 198.20647 
L 319.291251 190.204409 
" style="fill:none;stroke:#000000;stroke-opacity:0.5;"/>
    <path clip-path="url(#pfbc15184d8)" d="M 394.512397 150.865508 
L 319.291251 190.204409 
" style="fill:none;stroke:#000000;stroke-opacity:0.5;"/>
    <path clip-path="url(#pfbc15184d8)" d="M 98.759997 192.550241 
L 137.942273 97.100415 
" style="fill:none;stroke:#000000;stroke-opacity:0.5;"/>
    <path clip-path="url(#pfbc15184d8)" d="M 96.144002 235.692076 
L 164.495107 161.243341 
" style="fill:none;stroke:#000000;stroke-opacity:0.5;"/>
    <path clip-path="url(#pfbc15184d8)" d="M 281.087399 38.721889 
L 137.942273 97.100415 
" style="fill:none;stroke:#000000;stroke-opacity:0.5;"/>
    <path clip-path="url(#pfbc15184d8)" d="M 281.087399 38.721889 
L 350.559719 67.779043 
" style="fill:none;stroke:#000000;stroke-opacity:0.5;"/>
    <path clip-path="url(#pfbc15184d8)" d="M 164.495107 161.243341 
L 149.074851 257.478516 
" style="fill:none;stroke:#000000;stroke-opacity:0.5;"/>
    <path clip-path="url(#pfbc15184d8)" d="M 164.495107 161.243341 
L 114.747287 45.555823 
" style="fill:none;stroke:#000000;stroke-opacity:0.5;"/>
    <path clip-path="url(#pfbc15184d8)" d="M 164.495107 161.243341 
L 296.342695 139.080858 
" style="fill:none;stroke:#000000;stroke-opacity:0.5;"/>
    <path clip-path="url(#pfbc15184d8)" d="M 164.495107 161.243341 
L 319.291251 190.204409 
" style="fill:none;stroke:#000000;stroke-opacity:0.5;"/>
    <path clip-path="url(#pfbc15184d8)" d="M 164.495107 161.243341 
L 220.360195 263.008264 
" style="fill:none;stroke:#000000;stroke-opacity:0.5;"/>
    <path clip-path="url(#pfbc15184d8)" d="M 164.495107 161.243341 
L 89.454354 156.134752 
" style="fill:none;stroke:#000000;stroke-opacity:0.5;"/>
    <path clip-path="url(#pfbc15184d8)" d="M 137.942273 97.100415 
L 89.454354 156.134752 
" style="fill:none;stroke:#000000;stroke-opacity:0.5;"/>
    <path clip-path="url(#pfbc15184d8)" d="M 137.942273 97.100415 
L 170.599919 28.003556 
" style="fill:none;stroke:#000000;stroke-opacity:0.5;"/>
   </g>
   <g id="PathCollection_1">
    <defs>
     <path d="M 0 8.660254 
C 2.296726 8.660254 4.499694 7.747755 6.123724 6.123724 
C 7.747755 4.499694 8.660254 2.296726 8.660254 0 
C 8.660254 -2.296726 7.747755 -4.499694 6.123724 -6.123724 
C 4.499694 -7.747755 2.296726 -8.660254 0 -8.660254 
C -2.296726 -8.660254 -4.499694 -7.747755 -6.123724 -6.123724 
C -7.747755 -4.499694 -8.660254 -2.296726 -8.660254 0 
C -8.660254 2.296726 -7.747755 4.499694 -6.123724 6.123724 
C -4.499694 7.747755 -2.296726 8.660254 0 8.660254 
z
" id="me603342046" style="stroke:#ff0000;stroke-opacity:0.5;"/>
    </defs>
    <g clip-path="url(#pfbc15184d8)">
     <use style="fill:#ff0000;fill-opacity:0.5;stroke:#ff0000;stroke-opacity:0.5;" x="79.300207" xlink:href="#me603342046" y="118.207121"/>
     <use style="fill:#ff0000;fill-opacity:0.5;stroke:#ff0000;stroke-opacity:0.5;" x="220.774331" xlink:href="#me603342046" y="24.991736"/>
     <use style="fill:#ff0000;fill-opacity:0.5;stroke:#ff0000;stroke-opacity:0.5;" x="53.552756" xlink:href="#me603342046" y="95.407752"/>
     <use style="fill:#ff0000;fill-opacity:0.5;stroke:#ff0000;stroke-opacity:0.5;" x="260.374066" xlink:href="#me603342046" y="219.523421"/>
     <use style="fill:#ff0000;fill-opacity:0.5;stroke:#ff0000;stroke-opacity:0.5;" x="37.487603" xlink:href="#me603342046" y="130.426042"/>
     <use style="fill:#ff0000;fill-opacity:0.5;stroke:#ff0000;stroke-opacity:0.5;" x="82.463595" xlink:href="#me603342046" y="70.23834"/>
     <use style="fill:#ff0000;fill-opacity:0.5;stroke:#ff0000;stroke-opacity:0.5;" x="221.350414" xlink:href="#me603342046" y="100.212259"/>
     <use style="fill:#ff0000;fill-opacity:0.5;stroke:#ff0000;stroke-opacity:0.5;" x="293.753988" xlink:href="#me603342046" y="252.95443"/>
     <use style="fill:#ff0000;fill-opacity:0.5;stroke:#ff0000;stroke-opacity:0.5;" x="47.218071" xlink:href="#me603342046" y="170.471783"/>
     <use style="fill:#ff0000;fill-opacity:0.5;stroke:#ff0000;stroke-opacity:0.5;" x="377.365034" xlink:href="#me603342046" y="198.20647"/>
     <use style="fill:#ff0000;fill-opacity:0.5;stroke:#ff0000;stroke-opacity:0.5;" x="394.512397" xlink:href="#me603342046" y="150.865508"/>
     <use style="fill:#ff0000;fill-opacity:0.5;stroke:#ff0000;stroke-opacity:0.5;" x="98.759997" xlink:href="#me603342046" y="192.550241"/>
     <use style="fill:#ff0000;fill-opacity:0.5;stroke:#ff0000;stroke-opacity:0.5;" x="96.144002" xlink:href="#me603342046" y="235.692076"/>
     <use style="fill:#ff0000;fill-opacity:0.5;stroke:#ff0000;stroke-opacity:0.5;" x="281.087399" xlink:href="#me603342046" y="38.721889"/>
     <use style="fill:#ff0000;fill-opacity:0.5;stroke:#ff0000;stroke-opacity:0.5;" x="164.495107" xlink:href="#me603342046" y="161.243341"/>
     <use style="fill:#ff0000;fill-opacity:0.5;stroke:#ff0000;stroke-opacity:0.5;" x="114.747287" xlink:href="#me603342046" y="45.555823"/>
     <use style="fill:#ff0000;fill-opacity:0.5;stroke:#ff0000;stroke-opacity:0.5;" x="149.074851" xlink:href="#me603342046" y="257.478516"/>
     <use style="fill:#ff0000;fill-opacity:0.5;stroke:#ff0000;stroke-opacity:0.5;" x="296.342695" xlink:href="#me603342046" y="139.080858"/>
     <use style="fill:#ff0000;fill-opacity:0.5;stroke:#ff0000;stroke-opacity:0.5;" x="137.942273" xlink:href="#me603342046" y="97.100415"/>
     <use style="fill:#ff0000;fill-opacity:0.5;stroke:#ff0000;stroke-opacity:0.5;" x="319.291251" xlink:href="#me603342046" y="190.204409"/>
     <use style="fill:#ff0000;fill-opacity:0.5;stroke:#ff0000;stroke-opacity:0.5;" x="220.360195" xlink:href="#me603342046" y="263.008264"/>
     <use style="fill:#ff0000;fill-opacity:0.5;stroke:#ff0000;stroke-opacity:0.5;" x="89.454354" xlink:href="#me603342046" y="156.134752"/>
     <use style="fill:#ff0000;fill-opacity:0.5;stroke:#ff0000;stroke-opacity:0.5;" x="170.599919" xlink:href="#me603342046" y="28.003556"/>
     <use style="fill:#ff0000;fill-opacity:0.5;stroke:#ff0000;stroke-opacity:0.5;" x="350.559719" xlink:href="#me603342046" y="67.779043"/>
    </g>
   </g>
   <g id="text_1">
    <g clip-path="url(#pfbc15184d8)">
     <!-- TP53 -->
     <defs>
      <path d="M 0.484375 72.90625 
L 67.671875 72.90625 
L 67.671875 58.6875 
L 43.5 58.6875 
L 43.5 0 
L 24.703125 0 
L 24.703125 58.6875 
L 0.484375 58.6875 
z
" id="DejaVuSans-Bold-54"/>
      <path d="M 9.1875 72.90625 
L 40.375 72.90625 
Q 54.296875 72.90625 61.734375 66.71875 
Q 69.1875 60.546875 69.1875 49.125 
Q 69.1875 37.640625 61.734375 31.46875 
Q 54.296875 25.296875 40.375 25.296875 
L 27.984375 25.296875 
L 27.984375 0 
L 9.1875 0 
z
M 27.984375 59.28125 
L 27.984375 38.921875 
L 38.375 38.921875 
Q 43.84375 38.921875 46.828125 41.578125 
Q 49.8125 44.234375 49.8125 49.125 
Q 49.8125 54 46.828125 56.640625 
Q 43.84375 59.28125 38.375 59.28125 
z
" id="DejaVuSans-Bold-50"/>
      <path d="M 10.59375 72.90625 
L 57.328125 72.90625 
L 57.328125 59.078125 
L 25.59375 59.078125 
L 25.59375 47.796875 
Q 27.734375 48.390625 29.90625 48.703125 
Q 32.078125 49.03125 34.421875 49.03125 
Q 47.75 49.03125 55.171875 42.359375 
Q 62.59375 35.6875 62.59375 23.78125 
Q 62.59375 11.96875 54.515625 5.265625 
Q 46.4375 -1.421875 32.078125 -1.421875 
Q 25.875 -1.421875 19.796875 -0.21875 
Q 13.71875 0.984375 7.71875 3.421875 
L 7.71875 18.21875 
Q 13.671875 14.796875 19.015625 13.078125 
Q 24.359375 11.375 29.109375 11.375 
Q 35.9375 11.375 39.859375 14.71875 
Q 43.796875 18.0625 43.796875 23.78125 
Q 43.796875 29.546875 39.859375 32.859375 
Q 35.9375 36.1875 29.109375 36.1875 
Q 25.046875 36.1875 20.453125 35.125 
Q 15.875 34.078125 10.59375 31.890625 
z
" id="DejaVuSans-Bold-35"/>
      <path d="M 46.578125 39.3125 
Q 53.953125 37.40625 57.78125 32.6875 
Q 61.625 27.984375 61.625 20.703125 
Q 61.625 9.859375 53.3125 4.21875 
Q 45.015625 -1.421875 29.109375 -1.421875 
Q 23.484375 -1.421875 17.84375 -0.515625 
Q 12.203125 0.390625 6.6875 2.203125 
L 6.6875 16.703125 
Q 11.96875 14.0625 17.15625 12.71875 
Q 22.359375 11.375 27.390625 11.375 
Q 34.859375 11.375 38.84375 13.953125 
Q 42.828125 16.546875 42.828125 21.390625 
Q 42.828125 26.375 38.75 28.9375 
Q 34.671875 31.5 26.703125 31.5 
L 19.1875 31.5 
L 19.1875 43.609375 
L 27.09375 43.609375 
Q 34.1875 43.609375 37.640625 45.828125 
Q 41.109375 48.046875 41.109375 52.59375 
Q 41.109375 56.78125 37.734375 59.078125 
Q 34.375 61.375 28.21875 61.375 
Q 23.6875 61.375 19.046875 60.34375 
Q 14.40625 59.328125 9.8125 57.328125 
L 9.8125 71.09375 
Q 15.375 72.65625 20.84375 73.4375 
Q 26.3125 74.21875 31.59375 74.21875 
Q 45.796875 74.21875 52.84375 69.546875 
Q 59.90625 64.890625 59.90625 55.515625 
Q 59.90625 49.125 56.53125 45.046875 
Q 53.171875 40.96875 46.578125 39.3125 
" id="DejaVuSans-Bold-33"/>
     </defs>
     <g transform="translate(62.459894 121.518371)scale(0.12 -0.12)">
      <use xlink:href="#DejaVuSans-Bold-54"/>
      <use x="68.212891" xlink:href="#DejaVuSans-Bold-50"/>
      <use x="141.503906" xlink:href="#DejaVuSans-Bold-35"/>
      <use x="211.083984" xlink:href="#DejaVuSans-Bold-33"/>
     </g>
    </g>
   </g>
   <g id="text_2">
    <g clip-path="url(#pfbc15184d8)">
     <!-- GABARAP -->
     <defs>
      <path d="M 74.703125 5.421875 
Q 67.671875 2 60.109375 0.28125 
Q 52.546875 -1.421875 44.484375 -1.421875 
Q 26.265625 -1.421875 15.625 8.765625 
Q 4.984375 18.953125 4.984375 36.375 
Q 4.984375 54 15.8125 64.109375 
Q 26.65625 74.21875 45.515625 74.21875 
Q 52.78125 74.21875 59.4375 72.84375 
Q 66.109375 71.484375 72.015625 68.796875 
L 72.015625 53.71875 
Q 65.921875 57.171875 59.890625 58.875 
Q 53.859375 60.59375 47.796875 60.59375 
Q 36.578125 60.59375 30.5 54.3125 
Q 24.421875 48.046875 24.421875 36.375 
Q 24.421875 24.8125 30.28125 18.5 
Q 36.140625 12.203125 46.921875 12.203125 
Q 49.859375 12.203125 52.375 12.5625 
Q 54.890625 12.9375 56.890625 13.71875 
L 56.890625 27.875 
L 45.40625 27.875 
L 45.40625 40.484375 
L 74.703125 40.484375 
z
" id="DejaVuSans-Bold-47"/>
      <path d="M 53.421875 13.28125 
L 24.03125 13.28125 
L 19.390625 0 
L 0.484375 0 
L 27.484375 72.90625 
L 49.90625 72.90625 
L 76.90625 0 
L 58.015625 0 
z
M 28.71875 26.8125 
L 48.6875 26.8125 
L 38.71875 55.8125 
z
" id="DejaVuSans-Bold-41"/>
      <path d="M 38.375 44.671875 
Q 42.828125 44.671875 45.109375 46.625 
Q 47.40625 48.578125 47.40625 52.390625 
Q 47.40625 56.15625 45.109375 58.125 
Q 42.828125 60.109375 38.375 60.109375 
L 27.984375 60.109375 
L 27.984375 44.671875 
z
M 39.015625 12.796875 
Q 44.671875 12.796875 47.53125 15.1875 
Q 50.390625 17.578125 50.390625 22.40625 
Q 50.390625 27.15625 47.5625 29.515625 
Q 44.734375 31.890625 39.015625 31.890625 
L 27.984375 31.890625 
L 27.984375 12.796875 
z
M 56.5 39.015625 
Q 62.546875 37.25 65.859375 32.515625 
Q 69.1875 27.78125 69.1875 20.90625 
Q 69.1875 10.359375 62.0625 5.171875 
Q 54.9375 0 40.375 0 
L 9.1875 0 
L 9.1875 72.90625 
L 37.40625 72.90625 
Q 52.59375 72.90625 59.40625 68.3125 
Q 66.21875 63.71875 66.21875 53.609375 
Q 66.21875 48.296875 63.71875 44.5625 
Q 61.234375 40.828125 56.5 39.015625 
" id="DejaVuSans-Bold-42"/>
      <path d="M 35.890625 40.578125 
Q 41.796875 40.578125 44.359375 42.765625 
Q 46.921875 44.96875 46.921875 50 
Q 46.921875 54.984375 44.359375 57.125 
Q 41.796875 59.28125 35.890625 59.28125 
L 27.984375 59.28125 
L 27.984375 40.578125 
z
M 27.984375 27.59375 
L 27.984375 0 
L 9.1875 0 
L 9.1875 72.90625 
L 37.890625 72.90625 
Q 52.296875 72.90625 59 68.0625 
Q 65.71875 63.234375 65.71875 52.78125 
Q 65.71875 45.5625 62.21875 40.921875 
Q 58.734375 36.28125 51.703125 34.078125 
Q 55.5625 33.203125 58.609375 30.09375 
Q 61.671875 27 64.796875 20.703125 
L 75 0 
L 54.984375 0 
L 46.09375 18.109375 
Q 43.40625 23.578125 40.640625 25.578125 
Q 37.890625 27.59375 33.296875 27.59375 
z
" id="DejaVuSans-Bold-52"/>
     </defs>
     <g transform="translate(188.328394 28.302986)scale(0.12 -0.12)">
      <use xlink:href="#DejaVuSans-Bold-47"/>
      <use x="82.080078" xlink:href="#DejaVuSans-Bold-41"/>
      <use x="159.472656" xlink:href="#DejaVuSans-Bold-42"/>
      <use x="235.693359" xlink:href="#DejaVuSans-Bold-41"/>
      <use x="313.085938" xlink:href="#DejaVuSans-Bold-52"/>
      <use x="390.087891" xlink:href="#DejaVuSans-Bold-41"/>
      <use x="467.480469" xlink:href="#DejaVuSans-Bold-50"/>
     </g>
    </g>
   </g>
   <g id="text_3">
    <g clip-path="url(#pfbc15184d8)">
     <!-- MYBBP1A -->
     <defs>
      <path d="M 9.1875 72.90625 
L 33.109375 72.90625 
L 49.703125 33.890625 
L 66.40625 72.90625 
L 90.28125 72.90625 
L 90.28125 0 
L 72.515625 0 
L 72.515625 53.328125 
L 55.71875 14.015625 
L 43.796875 14.015625 
L 27 53.328125 
L 27 0 
L 9.1875 0 
z
" id="DejaVuSans-Bold-4d"/>
      <path d="M -0.984375 72.90625 
L 19.578125 72.90625 
L 36.1875 46.921875 
L 52.78125 72.90625 
L 73.390625 72.90625 
L 45.609375 30.71875 
L 45.609375 0 
L 26.8125 0 
L 26.8125 30.71875 
z
" id="DejaVuSans-Bold-59"/>
      <path d="M 11.71875 12.984375 
L 28.328125 12.984375 
L 28.328125 60.109375 
L 11.28125 56.59375 
L 11.28125 69.390625 
L 28.21875 72.90625 
L 46.09375 72.90625 
L 46.09375 12.984375 
L 62.703125 12.984375 
L 62.703125 0 
L 11.71875 0 
z
" id="DejaVuSans-Bold-31"/>
     </defs>
     <g transform="translate(20.875256 98.719002)scale(0.12 -0.12)">
      <use xlink:href="#DejaVuSans-Bold-4d"/>
      <use x="99.511719" xlink:href="#DejaVuSans-Bold-59"/>
      <use x="171.923828" xlink:href="#DejaVuSans-Bold-42"/>
      <use x="248.144531" xlink:href="#DejaVuSans-Bold-42"/>
      <use x="324.365234" xlink:href="#DejaVuSans-Bold-50"/>
      <use x="397.65625" xlink:href="#DejaVuSans-Bold-31"/>
      <use x="467.236328" xlink:href="#DejaVuSans-Bold-41"/>
     </g>
    </g>
   </g>
   <g id="text_4">
    <g clip-path="url(#pfbc15184d8)">
     <!-- BRCA1 -->
     <defs>
      <path d="M 67 4 
Q 61.8125 1.3125 56.203125 -0.046875 
Q 50.59375 -1.421875 44.484375 -1.421875 
Q 26.265625 -1.421875 15.625 8.765625 
Q 4.984375 18.953125 4.984375 36.375 
Q 4.984375 53.859375 15.625 64.03125 
Q 26.265625 74.21875 44.484375 74.21875 
Q 50.59375 74.21875 56.203125 72.84375 
Q 61.8125 71.484375 67 68.796875 
L 67 53.71875 
Q 61.765625 57.28125 56.6875 58.9375 
Q 51.609375 60.59375 46 60.59375 
Q 35.9375 60.59375 30.171875 54.140625 
Q 24.421875 47.703125 24.421875 36.375 
Q 24.421875 25.09375 30.171875 18.640625 
Q 35.9375 12.203125 46 12.203125 
Q 51.609375 12.203125 56.6875 13.859375 
Q 61.765625 15.53125 67 19.09375 
z
" id="DejaVuSans-Bold-43"/>
     </defs>
     <g transform="translate(237.959379 222.834671)scale(0.12 -0.12)">
      <use xlink:href="#DejaVuSans-Bold-42"/>
      <use x="76.220703" xlink:href="#DejaVuSans-Bold-52"/>
      <use x="153.222656" xlink:href="#DejaVuSans-Bold-43"/>
      <use x="226.611328" xlink:href="#DejaVuSans-Bold-41"/>
      <use x="304.003906" xlink:href="#DejaVuSans-Bold-31"/>
     </g>
    </g>
   </g>
   <g id="text_5">
    <g clip-path="url(#pfbc15184d8)">
     <!-- TNFRSF4 -->
     <defs>
      <path d="M 9.1875 72.90625 
L 30.171875 72.90625 
L 56.6875 22.90625 
L 56.6875 72.90625 
L 74.515625 72.90625 
L 74.515625 0 
L 53.515625 0 
L 27 50 
L 27 0 
L 9.1875 0 
z
" id="DejaVuSans-Bold-4e"/>
      <path d="M 9.1875 72.90625 
L 59.90625 72.90625 
L 59.90625 58.6875 
L 27.984375 58.6875 
L 27.984375 45.125 
L 58.015625 45.125 
L 58.015625 30.90625 
L 27.984375 30.90625 
L 27.984375 0 
L 9.1875 0 
z
" id="DejaVuSans-Bold-46"/>
      <path d="M 59.90625 70.609375 
L 59.90625 55.171875 
Q 53.90625 57.859375 48.1875 59.21875 
Q 42.484375 60.59375 37.40625 60.59375 
Q 30.671875 60.59375 27.4375 58.734375 
Q 24.21875 56.890625 24.21875 52.984375 
Q 24.21875 50.046875 26.390625 48.40625 
Q 28.5625 46.78125 34.28125 45.609375 
L 42.28125 44 
Q 54.4375 41.546875 59.5625 36.5625 
Q 64.703125 31.59375 64.703125 22.40625 
Q 64.703125 10.359375 57.546875 4.46875 
Q 50.390625 -1.421875 35.6875 -1.421875 
Q 28.765625 -1.421875 21.78125 -0.09375 
Q 14.796875 1.21875 7.8125 3.8125 
L 7.8125 19.671875 
Q 14.796875 15.96875 21.3125 14.078125 
Q 27.828125 12.203125 33.890625 12.203125 
Q 40.046875 12.203125 43.3125 14.25 
Q 46.578125 16.3125 46.578125 20.125 
Q 46.578125 23.53125 44.359375 25.390625 
Q 42.140625 27.25 35.5 28.71875 
L 28.21875 30.328125 
Q 17.28125 32.671875 12.21875 37.796875 
Q 7.171875 42.921875 7.171875 51.609375 
Q 7.171875 62.5 14.203125 68.359375 
Q 21.234375 74.21875 34.421875 74.21875 
Q 40.4375 74.21875 46.78125 73.3125 
Q 53.125 72.40625 59.90625 70.609375 
" id="DejaVuSans-Bold-53"/>
      <path d="M 36.8125 57.421875 
L 16.21875 26.90625 
L 36.8125 26.90625 
z
M 33.6875 72.90625 
L 54.59375 72.90625 
L 54.59375 26.90625 
L 64.984375 26.90625 
L 64.984375 13.28125 
L 54.59375 13.28125 
L 54.59375 0 
L 36.8125 0 
L 36.8125 13.28125 
L 4.5 13.28125 
L 4.5 29.390625 
z
" id="DejaVuSans-Bold-34"/>
     </defs>
     <g transform="translate(52.036095 73.54959)scale(0.12 -0.12)">
      <use xlink:href="#DejaVuSans-Bold-54"/>
      <use x="68.212891" xlink:href="#DejaVuSans-Bold-4e"/>
      <use x="151.904297" xlink:href="#DejaVuSans-Bold-46"/>
      <use x="220.214844" xlink:href="#DejaVuSans-Bold-52"/>
      <use x="297.216797" xlink:href="#DejaVuSans-Bold-53"/>
      <use x="369.238281" xlink:href="#DejaVuSans-Bold-46"/>
      <use x="437.548828" xlink:href="#DejaVuSans-Bold-34"/>
     </g>
    </g>
   </g>
   <g id="text_6">
    <g clip-path="url(#pfbc15184d8)">
     <!-- CDKN1A -->
     <defs>
      <path d="M 27.984375 58.6875 
L 27.984375 14.203125 
L 34.71875 14.203125 
Q 46.234375 14.203125 52.3125 19.921875 
Q 58.40625 25.640625 58.40625 36.53125 
Q 58.40625 47.359375 52.34375 53.015625 
Q 46.296875 58.6875 34.71875 58.6875 
z
M 9.1875 72.90625 
L 29 72.90625 
Q 45.609375 72.90625 53.734375 70.53125 
Q 61.859375 68.171875 67.671875 62.5 
Q 72.796875 57.5625 75.28125 51.109375 
Q 77.78125 44.671875 77.78125 36.53125 
Q 77.78125 28.265625 75.28125 21.796875 
Q 72.796875 15.328125 67.671875 10.40625 
Q 61.8125 4.734375 53.609375 2.359375 
Q 45.40625 0 29 0 
L 9.1875 0 
z
" id="DejaVuSans-Bold-44"/>
      <path d="M 9.1875 72.90625 
L 27.984375 72.90625 
L 27.984375 46.296875 
L 55.078125 72.90625 
L 76.90625 72.90625 
L 41.796875 38.375 
L 80.515625 0 
L 56.984375 0 
L 27.984375 28.71875 
L 27.984375 0 
L 9.1875 0 
z
" id="DejaVuSans-Bold-4b"/>
     </defs>
     <g transform="translate(322.686906 71.090293)scale(0.12 -0.12)">
      <use xlink:href="#DejaVuSans-Bold-43"/>
      <use x="73.388672" xlink:href="#DejaVuSans-Bold-44"/>
      <use x="156.396484" xlink:href="#DejaVuSans-Bold-4b"/>
      <use x="233.886719" xlink:href="#DejaVuSans-Bold-4e"/>
      <use x="317.578125" xlink:href="#DejaVuSans-Bold-31"/>
      <use x="387.158203" xlink:href="#DejaVuSans-Bold-41"/>
     </g>
    </g>
   </g>
   <g id="text_7">
    <g clip-path="url(#pfbc15184d8)">
     <!-- TP73 -->
     <defs>
      <path d="M 6.6875 72.90625 
L 61.625 72.90625 
L 61.625 62.3125 
L 33.203125 0 
L 14.890625 0 
L 41.796875 59.078125 
L 6.6875 59.078125 
z
" id="DejaVuSans-Bold-37"/>
     </defs>
     <g transform="translate(20.647291 133.737292)scale(0.12 -0.12)">
      <use xlink:href="#DejaVuSans-Bold-54"/>
      <use x="68.212891" xlink:href="#DejaVuSans-Bold-50"/>
      <use x="141.503906" xlink:href="#DejaVuSans-Bold-37"/>
      <use x="211.083984" xlink:href="#DejaVuSans-Bold-33"/>
     </g>
    </g>
   </g>
   <g id="text_8">
    <g clip-path="url(#pfbc15184d8)">
     <!-- TNFSF12 -->
     <defs>
      <path d="M 28.8125 13.8125 
L 60.890625 13.8125 
L 60.890625 0 
L 7.90625 0 
L 7.90625 13.8125 
L 34.515625 37.3125 
Q 38.09375 40.53125 39.796875 43.609375 
Q 41.5 46.6875 41.5 50 
Q 41.5 55.125 38.0625 58.25 
Q 34.625 61.375 28.90625 61.375 
Q 24.515625 61.375 19.28125 59.5 
Q 14.0625 57.625 8.109375 53.90625 
L 8.109375 69.921875 
Q 14.453125 72.015625 20.65625 73.109375 
Q 26.859375 74.21875 32.8125 74.21875 
Q 45.90625 74.21875 53.15625 68.453125 
Q 60.40625 62.703125 60.40625 52.390625 
Q 60.40625 46.4375 57.328125 41.28125 
Q 54.25 36.140625 44.390625 27.484375 
z
" id="DejaVuSans-Bold-32"/>
     </defs>
     <g transform="translate(191.368226 103.523509)scale(0.12 -0.12)">
      <use xlink:href="#DejaVuSans-Bold-54"/>
      <use x="68.212891" xlink:href="#DejaVuSans-Bold-4e"/>
      <use x="151.904297" xlink:href="#DejaVuSans-Bold-46"/>
      <use x="220.214844" xlink:href="#DejaVuSans-Bold-53"/>
      <use x="292.236328" xlink:href="#DejaVuSans-Bold-46"/>
      <use x="360.546875" xlink:href="#DejaVuSans-Bold-31"/>
      <use x="430.126953" xlink:href="#DejaVuSans-Bold-32"/>
     </g>
    </g>
   </g>
   <g id="text_9">
    <g clip-path="url(#pfbc15184d8)">
     <!-- IFI6 -->
     <defs>
      <path d="M 9.1875 72.90625 
L 27.984375 72.90625 
L 27.984375 0 
L 9.1875 0 
z
" id="DejaVuSans-Bold-49"/>
      <path d="M 36.1875 35.984375 
Q 31.25 35.984375 28.78125 32.78125 
Q 26.3125 29.59375 26.3125 23.1875 
Q 26.3125 16.796875 28.78125 13.59375 
Q 31.25 10.40625 36.1875 10.40625 
Q 41.15625 10.40625 43.625 13.59375 
Q 46.09375 16.796875 46.09375 23.1875 
Q 46.09375 29.59375 43.625 32.78125 
Q 41.15625 35.984375 36.1875 35.984375 
M 59.421875 71 
L 59.421875 57.515625 
Q 54.78125 59.71875 50.671875 60.765625 
Q 46.578125 61.8125 42.671875 61.8125 
Q 34.28125 61.8125 29.59375 57.140625 
Q 24.90625 52.484375 24.125 43.3125 
Q 27.34375 45.703125 31.09375 46.890625 
Q 34.859375 48.09375 39.3125 48.09375 
Q 50.484375 48.09375 57.34375 41.546875 
Q 64.203125 35.015625 64.203125 24.421875 
Q 64.203125 12.703125 56.53125 5.640625 
Q 48.875 -1.421875 35.984375 -1.421875 
Q 21.78125 -1.421875 13.984375 8.171875 
Q 6.203125 17.78125 6.203125 35.40625 
Q 6.203125 53.46875 15.3125 63.796875 
Q 24.421875 74.125 40.28125 74.125 
Q 45.3125 74.125 50.046875 73.34375 
Q 54.78125 72.5625 59.421875 71 
" id="DejaVuSans-Bold-36"/>
     </defs>
     <g transform="translate(281.016176 256.26568)scale(0.12 -0.12)">
      <use xlink:href="#DejaVuSans-Bold-49"/>
      <use x="37.207031" xlink:href="#DejaVuSans-Bold-46"/>
      <use x="105.517578" xlink:href="#DejaVuSans-Bold-49"/>
      <use x="142.724609" xlink:href="#DejaVuSans-Bold-36"/>
     </g>
    </g>
   </g>
   <g id="text_10">
    <g clip-path="url(#pfbc15184d8)">
     <!-- TNFRSF18 -->
     <defs>
      <path d="M 34.8125 32.625 
Q 29.546875 32.625 26.703125 29.734375 
Q 23.875 26.859375 23.875 21.484375 
Q 23.875 16.109375 26.703125 13.25 
Q 29.546875 10.40625 34.8125 10.40625 
Q 40.046875 10.40625 42.828125 13.25 
Q 45.609375 16.109375 45.609375 21.484375 
Q 45.609375 26.90625 42.828125 29.765625 
Q 40.046875 32.625 34.8125 32.625 
M 21.09375 38.8125 
Q 14.453125 40.828125 11.078125 44.96875 
Q 7.71875 49.125 7.71875 55.328125 
Q 7.71875 64.546875 14.59375 69.375 
Q 21.484375 74.21875 34.8125 74.21875 
Q 48.046875 74.21875 54.921875 69.40625 
Q 61.8125 64.59375 61.8125 55.328125 
Q 61.8125 49.125 58.421875 44.96875 
Q 55.03125 40.828125 48.390625 38.8125 
Q 55.8125 36.765625 59.59375 32.15625 
Q 63.375 27.546875 63.375 20.515625 
Q 63.375 9.671875 56.171875 4.125 
Q 48.96875 -1.421875 34.8125 -1.421875 
Q 20.609375 -1.421875 13.359375 4.125 
Q 6.109375 9.671875 6.109375 20.515625 
Q 6.109375 27.546875 9.890625 32.15625 
Q 13.671875 36.765625 21.09375 38.8125 
M 25.484375 53.421875 
Q 25.484375 49.078125 27.90625 46.734375 
Q 30.328125 44.390625 34.8125 44.390625 
Q 39.203125 44.390625 41.59375 46.734375 
Q 44 49.078125 44 53.421875 
Q 44 57.765625 41.59375 60.078125 
Q 39.203125 62.40625 34.8125 62.40625 
Q 30.328125 62.40625 27.90625 60.0625 
Q 25.484375 57.71875 25.484375 53.421875 
" id="DejaVuSans-Bold-38"/>
     </defs>
     <g transform="translate(12.615884 173.783033)scale(0.12 -0.12)">
      <use xlink:href="#DejaVuSans-Bold-54"/>
      <use x="68.212891" xlink:href="#DejaVuSans-Bold-4e"/>
      <use x="151.904297" xlink:href="#DejaVuSans-Bold-46"/>
      <use x="220.214844" xlink:href="#DejaVuSans-Bold-52"/>
      <use x="297.216797" xlink:href="#DejaVuSans-Bold-53"/>
      <use x="369.238281" xlink:href="#DejaVuSans-Bold-46"/>
      <use x="437.548828" xlink:href="#DejaVuSans-Bold-31"/>
      <use x="507.128906" xlink:href="#DejaVuSans-Bold-38"/>
     </g>
    </g>
   </g>
   <g id="text_11">
    <g clip-path="url(#pfbc15184d8)">
     <!-- DCC -->
     <g transform="translate(363.577221 201.51772)scale(0.12 -0.12)">
      <use xlink:href="#DejaVuSans-Bold-44"/>
      <use x="83.007812" xlink:href="#DejaVuSans-Bold-43"/>
      <use x="156.396484" xlink:href="#DejaVuSans-Bold-43"/>
     </g>
    </g>
   </g>
   <g id="text_12">
    <g clip-path="url(#pfbc15184d8)">
     <!-- FGFR3 -->
     <g transform="translate(372.595522 154.176758)scale(0.12 -0.12)">
      <use xlink:href="#DejaVuSans-Bold-46"/>
      <use x="68.310547" xlink:href="#DejaVuSans-Bold-47"/>
      <use x="150.390625" xlink:href="#DejaVuSans-Bold-46"/>
      <use x="218.701172" xlink:href="#DejaVuSans-Bold-52"/>
      <use x="295.703125" xlink:href="#DejaVuSans-Bold-33"/>
     </g>
    </g>
   </g>
   <g id="text_13">
    <g clip-path="url(#pfbc15184d8)">
     <!-- TNFRSF14 -->
     <g transform="translate(64.15781 195.861491)scale(0.12 -0.12)">
      <use xlink:href="#DejaVuSans-Bold-54"/>
      <use x="68.212891" xlink:href="#DejaVuSans-Bold-4e"/>
      <use x="151.904297" xlink:href="#DejaVuSans-Bold-46"/>
      <use x="220.214844" xlink:href="#DejaVuSans-Bold-52"/>
      <use x="297.216797" xlink:href="#DejaVuSans-Bold-53"/>
      <use x="369.238281" xlink:href="#DejaVuSans-Bold-46"/>
      <use x="437.548828" xlink:href="#DejaVuSans-Bold-31"/>
      <use x="507.128906" xlink:href="#DejaVuSans-Bold-34"/>
     </g>
    </g>
   </g>
   <g id="text_14">
    <g clip-path="url(#pfbc15184d8)">
     <!-- TNFRSF10D -->
     <defs>
      <path d="M 46 36.53125 
Q 46 50.203125 43.4375 55.78125 
Q 40.875 61.375 34.8125 61.375 
Q 28.765625 61.375 26.171875 55.78125 
Q 23.578125 50.203125 23.578125 36.53125 
Q 23.578125 22.703125 26.171875 17.03125 
Q 28.765625 11.375 34.8125 11.375 
Q 40.828125 11.375 43.40625 17.03125 
Q 46 22.703125 46 36.53125 
M 64.796875 36.375 
Q 64.796875 18.265625 56.984375 8.421875 
Q 49.171875 -1.421875 34.8125 -1.421875 
Q 20.40625 -1.421875 12.59375 8.421875 
Q 4.78125 18.265625 4.78125 36.375 
Q 4.78125 54.546875 12.59375 64.375 
Q 20.40625 74.21875 34.8125 74.21875 
Q 49.171875 74.21875 56.984375 64.375 
Q 64.796875 54.546875 64.796875 36.375 
" id="DejaVuSans-Bold-30"/>
     </defs>
     <g transform="translate(56.560877 239.003326)scale(0.12 -0.12)">
      <use xlink:href="#DejaVuSans-Bold-54"/>
      <use x="68.212891" xlink:href="#DejaVuSans-Bold-4e"/>
      <use x="151.904297" xlink:href="#DejaVuSans-Bold-46"/>
      <use x="220.214844" xlink:href="#DejaVuSans-Bold-52"/>
      <use x="297.216797" xlink:href="#DejaVuSans-Bold-53"/>
      <use x="369.238281" xlink:href="#DejaVuSans-Bold-46"/>
      <use x="437.548828" xlink:href="#DejaVuSans-Bold-31"/>
      <use x="507.128906" xlink:href="#DejaVuSans-Bold-30"/>
      <use x="576.708984" xlink:href="#DejaVuSans-Bold-44"/>
     </g>
    </g>
   </g>
   <g id="text_15">
    <g clip-path="url(#pfbc15184d8)">
     <!-- ERBB3 -->
     <defs>
      <path d="M 9.1875 72.90625 
L 59.90625 72.90625 
L 59.90625 58.6875 
L 27.984375 58.6875 
L 27.984375 45.125 
L 58.015625 45.125 
L 58.015625 30.90625 
L 27.984375 30.90625 
L 27.984375 14.203125 
L 60.984375 14.203125 
L 60.984375 0 
L 9.1875 0 
z
" id="DejaVuSans-Bold-45"/>
     </defs>
     <g transform="translate(142.455419 164.554591)scale(0.12 -0.12)">
      <use xlink:href="#DejaVuSans-Bold-45"/>
      <use x="68.310547" xlink:href="#DejaVuSans-Bold-52"/>
      <use x="145.3125" xlink:href="#DejaVuSans-Bold-42"/>
      <use x="221.533203" xlink:href="#DejaVuSans-Bold-42"/>
      <use x="297.753906" xlink:href="#DejaVuSans-Bold-33"/>
     </g>
    </g>
   </g>
   <g id="text_16">
    <g clip-path="url(#pfbc15184d8)">
     <!-- TNFRSF10A -->
     <g transform="translate(75.501662 48.867073)scale(0.12 -0.12)">
      <use xlink:href="#DejaVuSans-Bold-54"/>
      <use x="68.212891" xlink:href="#DejaVuSans-Bold-4e"/>
      <use x="151.904297" xlink:href="#DejaVuSans-Bold-46"/>
      <use x="220.214844" xlink:href="#DejaVuSans-Bold-52"/>
      <use x="297.216797" xlink:href="#DejaVuSans-Bold-53"/>
      <use x="369.238281" xlink:href="#DejaVuSans-Bold-46"/>
      <use x="437.548828" xlink:href="#DejaVuSans-Bold-31"/>
      <use x="507.128906" xlink:href="#DejaVuSans-Bold-30"/>
      <use x="576.708984" xlink:href="#DejaVuSans-Bold-41"/>
     </g>
    </g>
   </g>
   <g id="text_17">
    <g clip-path="url(#pfbc15184d8)">
     <!-- TNFRSF9 -->
     <defs>
      <path d="M 10.015625 1.609375 
L 10.015625 15.09375 
Q 14.5 12.984375 18.59375 11.9375 
Q 22.703125 10.890625 26.703125 10.890625 
Q 35.109375 10.890625 39.796875 15.546875 
Q 44.484375 20.21875 45.3125 29.390625 
Q 42 26.953125 38.234375 25.734375 
Q 34.46875 24.515625 30.078125 24.515625 
Q 18.890625 24.515625 12.03125 31.03125 
Q 5.171875 37.546875 5.171875 48.1875 
Q 5.171875 59.96875 12.8125 67.046875 
Q 20.453125 74.125 33.296875 74.125 
Q 47.5625 74.125 55.375 64.5 
Q 63.1875 54.890625 63.1875 37.3125 
Q 63.1875 19.234375 54.046875 8.90625 
Q 44.921875 -1.421875 29 -1.421875 
Q 23.875 -1.421875 19.1875 -0.65625 
Q 14.5 0.09375 10.015625 1.609375 
M 33.203125 36.71875 
Q 38.140625 36.71875 40.625 39.90625 
Q 43.109375 43.109375 43.109375 49.515625 
Q 43.109375 55.859375 40.625 59.078125 
Q 38.140625 62.3125 33.203125 62.3125 
Q 28.265625 62.3125 25.78125 59.078125 
Q 23.296875 55.859375 23.296875 49.515625 
Q 23.296875 43.109375 25.78125 39.90625 
Q 28.265625 36.71875 33.203125 36.71875 
" id="DejaVuSans-Bold-39"/>
     </defs>
     <g transform="translate(118.647351 260.789766)scale(0.12 -0.12)">
      <use xlink:href="#DejaVuSans-Bold-54"/>
      <use x="68.212891" xlink:href="#DejaVuSans-Bold-4e"/>
      <use x="151.904297" xlink:href="#DejaVuSans-Bold-46"/>
      <use x="220.214844" xlink:href="#DejaVuSans-Bold-52"/>
      <use x="297.216797" xlink:href="#DejaVuSans-Bold-53"/>
      <use x="369.238281" xlink:href="#DejaVuSans-Bold-46"/>
      <use x="437.548828" xlink:href="#DejaVuSans-Bold-39"/>
     </g>
    </g>
   </g>
   <g id="text_18">
    <g clip-path="url(#pfbc15184d8)">
     <!-- BNIP3L -->
     <defs>
      <path d="M 9.1875 72.90625 
L 27.984375 72.90625 
L 27.984375 14.203125 
L 60.984375 14.203125 
L 60.984375 0 
L 9.1875 0 
z
" id="DejaVuSans-Bold-4c"/>
     </defs>
     <g transform="translate(272.120508 142.392108)scale(0.12 -0.12)">
      <use xlink:href="#DejaVuSans-Bold-42"/>
      <use x="76.220703" xlink:href="#DejaVuSans-Bold-4e"/>
      <use x="159.912109" xlink:href="#DejaVuSans-Bold-49"/>
      <use x="197.119141" xlink:href="#DejaVuSans-Bold-50"/>
      <use x="270.410156" xlink:href="#DejaVuSans-Bold-33"/>
      <use x="339.990234" xlink:href="#DejaVuSans-Bold-4c"/>
     </g>
    </g>
   </g>
   <g id="text_19">
    <g clip-path="url(#pfbc15184d8)">
     <!-- CRIP1 -->
     <g transform="translate(118.114148 100.411665)scale(0.12 -0.12)">
      <use xlink:href="#DejaVuSans-Bold-43"/>
      <use x="73.388672" xlink:href="#DejaVuSans-Bold-52"/>
      <use x="150.390625" xlink:href="#DejaVuSans-Bold-49"/>
      <use x="187.597656" xlink:href="#DejaVuSans-Bold-50"/>
      <use x="260.888672" xlink:href="#DejaVuSans-Bold-31"/>
     </g>
    </g>
   </g>
   <g id="text_20">
    <g clip-path="url(#pfbc15184d8)">
     <!-- CLU -->
     <defs>
      <path d="M 9.1875 72.90625 
L 27.984375 72.90625 
L 27.984375 29.203125 
Q 27.984375 20.171875 30.9375 16.28125 
Q 33.890625 12.40625 40.578125 12.40625 
Q 47.3125 12.40625 50.265625 16.28125 
Q 53.21875 20.171875 53.21875 29.203125 
L 53.21875 72.90625 
L 72.015625 72.90625 
L 72.015625 29.203125 
Q 72.015625 13.71875 64.25 6.140625 
Q 56.5 -1.421875 40.578125 -1.421875 
Q 24.703125 -1.421875 16.9375 6.140625 
Q 9.1875 13.71875 9.1875 29.203125 
z
" id="DejaVuSans-Bold-55"/>
     </defs>
     <g transform="translate(306.195313 193.515659)scale(0.12 -0.12)">
      <use xlink:href="#DejaVuSans-Bold-43"/>
      <use x="73.388672" xlink:href="#DejaVuSans-Bold-4c"/>
      <use x="137.0625" xlink:href="#DejaVuSans-Bold-55"/>
     </g>
    </g>
   </g>
   <g id="text_21">
    <g clip-path="url(#pfbc15184d8)">
     <!-- BCL2 -->
     <g transform="translate(203.38582 266.319514)scale(0.12 -0.12)">
      <use xlink:href="#DejaVuSans-Bold-42"/>
      <use x="76.220703" xlink:href="#DejaVuSans-Bold-43"/>
      <use x="149.609375" xlink:href="#DejaVuSans-Bold-4c"/>
      <use x="213.330078" xlink:href="#DejaVuSans-Bold-32"/>
     </g>
    </g>
   </g>
   <g id="text_22">
    <g clip-path="url(#pfbc15184d8)">
     <!-- HIC1 -->
     <defs>
      <path d="M 9.1875 72.90625 
L 27.984375 72.90625 
L 27.984375 45.125 
L 55.71875 45.125 
L 55.71875 72.90625 
L 74.515625 72.90625 
L 74.515625 0 
L 55.71875 0 
L 55.71875 30.90625 
L 27.984375 30.90625 
L 27.984375 0 
L 9.1875 0 
z
" id="DejaVuSans-Bold-48"/>
     </defs>
     <g transform="translate(73.622791 159.446002)scale(0.12 -0.12)">
      <use xlink:href="#DejaVuSans-Bold-48"/>
      <use x="83.691406" xlink:href="#DejaVuSans-Bold-49"/>
      <use x="120.898438" xlink:href="#DejaVuSans-Bold-43"/>
      <use x="194.287109" xlink:href="#DejaVuSans-Bold-31"/>
     </g>
    </g>
   </g>
   <g id="text_23">
    <g clip-path="url(#pfbc15184d8)">
     <!-- SFN -->
     <g transform="translate(157.158982 31.314806)scale(0.12 -0.12)">
      <use xlink:href="#DejaVuSans-Bold-53"/>
      <use x="72.021484" xlink:href="#DejaVuSans-Bold-46"/>
      <use x="140.332031" xlink:href="#DejaVuSans-Bold-4e"/>
     </g>
    </g>
   </g>
   <g id="text_24">
    <g clip-path="url(#pfbc15184d8)">
     <!-- CASP9 -->
     <g transform="translate(259.147087 42.033139)scale(0.12 -0.12)">
      <use xlink:href="#DejaVuSans-Bold-43"/>
      <use x="73.388672" xlink:href="#DejaVuSans-Bold-41"/>
      <use x="150.78125" xlink:href="#DejaVuSans-Bold-53"/>
      <use x="222.802734" xlink:href="#DejaVuSans-Bold-50"/>
      <use x="296.09375" xlink:href="#DejaVuSans-Bold-39"/>
     </g>
    </g>
   </g>
  </g>
 </g>
 <defs>
  <clipPath id="pfbc15184d8">
   <rect height="288" width="432" x="0" y="0"/>
  </clipPath>
 </defs>
</svg>
