<?xml version="1.0" encoding="utf-8" standalone="no"?>
<!DOCTYPE svg PUBLIC "-//W3C//DTD SVG 1.1//EN"
  "http://www.w3.org/Graphics/SVG/1.1/DTD/svg11.dtd">
<!-- Created with matplotlib (http://matplotlib.org/) -->
<svg height="360pt" version="1.1" viewBox="0 0 1080 360" width="1080pt" xmlns="http://www.w3.org/2000/svg" xmlns:xlink="http://www.w3.org/1999/xlink">
 <defs>
  <style type="text/css">
*{stroke-linecap:butt;stroke-linejoin:round;}
  </style>
 </defs>
 <g id="figure_1">
  <g id="patch_1">
   <path d="M 0 360 
L 1080 360 
L 1080 0 
L 0 0 
z
" style="fill:#ffffff;"/>
  </g>
  <g id="axes_1">
   <g id="patch_2">
    <path d="M 135 315 
L 972 315 
L 972 43.2 
L 135 43.2 
z
" style="fill:#ffffff;"/>
   </g>
   <g id="PathCollection_1">
    <path clip-path="url(#p38597e03d4)" d="M 906.163598 61.881679 
C 907.837959 61.881679 909.443968 61.216448 910.62792 60.032496 
C 911.811872 58.848545 912.477103 57.242536 912.477103 55.568175 
C 912.477103 53.893814 911.811872 52.287805 910.62792 51.103853 
C 909.443968 49.919901 907.837959 49.254671 906.163598 49.254671 
C 904.489237 49.254671 902.883229 49.919901 901.699277 51.103853 
C 900.515325 52.287805 899.850094 53.893814 899.850094 55.568175 
C 899.850094 57.242536 900.515325 58.848545 901.699277 60.032496 
C 902.883229 61.216448 904.489237 61.881679 906.163598 61.881679 
z
" style="fill:#d093a4;fill-opacity:0.7;stroke:#ffffff;stroke-opacity:0.7;stroke-width:0.75;"/>
    <path clip-path="url(#p38597e03d4)" d="M 696.662023 179.027944 
C 697.955033 179.027944 699.195259 178.514225 700.109555 177.599929 
C 701.023851 176.685633 701.53757 175.445408 701.53757 174.152398 
C 701.53757 172.859388 701.023851 171.619162 700.109555 170.704866 
C 699.195259 169.79057 697.955033 169.276852 696.662023 169.276852 
C 695.369013 169.276852 694.128788 169.79057 693.214492 170.704866 
C 692.300196 171.619162 691.786477 172.859388 691.786477 174.152398 
C 691.786477 175.445408 692.300196 176.685633 693.214492 177.599929 
C 694.128788 178.514225 695.369013 179.027944 696.662023 179.027944 
z
" style="fill:#dca7ae;fill-opacity:0.7;stroke:#ffffff;stroke-opacity:0.7;stroke-width:0.75;"/>
    <path clip-path="url(#p38597e03d4)" d="M 596.93644 221.562669 
C 598.09481 221.562669 599.205893 221.102444 600.024984 220.283353 
C 600.844076 219.464261 601.304301 218.353179 601.304301 217.194808 
C 601.304301 216.036438 600.844076 214.925355 600.024984 214.106264 
C 599.205893 213.287172 598.09481 212.826947 596.93644 212.826947 
C 595.778069 212.826947 594.666987 213.287172 593.847895 214.106264 
C 593.028804 214.925355 592.568579 216.036438 592.568579 217.194808 
C 592.568579 218.353179 593.028804 219.464261 593.847895 220.283353 
C 594.666987 221.102444 595.778069 221.562669 596.93644 221.562669 
z
" style="fill:#dfaeb2;fill-opacity:0.7;stroke:#ffffff;stroke-opacity:0.7;stroke-width:0.75;"/>
    <path clip-path="url(#p38597e03d4)" d="M 499.08573 253.896447 
C 499.966648 253.896447 500.811605 253.546454 501.434508 252.923551 
C 502.057411 252.300647 502.407404 251.455691 502.407404 250.574772 
C 502.407404 249.693854 502.057411 248.848897 501.434508 248.225994 
C 500.811605 247.603091 499.966648 247.253098 499.08573 247.253098 
C 498.204811 247.253098 497.359855 247.603091 496.736951 248.225994 
C 496.114048 248.848897 495.764055 249.693854 495.764055 250.574772 
C 495.764055 251.455691 496.114048 252.300647 496.736951 252.923551 
C 497.359855 253.546454 498.204811 253.896447 499.08573 253.896447 
z
" style="fill:#e4b9b9;fill-opacity:0.7;stroke:#ffffff;stroke-opacity:0.7;stroke-width:0.75;"/>
    <path clip-path="url(#p38597e03d4)" d="M 431.74921 273.424233 
C 432.986313 273.424233 434.172914 272.932727 435.047678 272.057963 
C 435.922442 271.183199 436.413948 269.996598 436.413948 268.759495 
C 436.413948 267.522392 435.922442 266.335791 435.047678 265.461028 
C 434.172914 264.586264 432.986313 264.094758 431.74921 264.094758 
C 430.512107 264.094758 429.325507 264.586264 428.450743 265.461028 
C 427.575979 266.335791 427.084473 267.522392 427.084473 268.759495 
C 427.084473 269.996598 427.575979 271.183199 428.450743 272.057963 
C 429.325507 272.932727 430.512107 273.424233 431.74921 273.424233 
z
" style="fill:#deabb0;fill-opacity:0.7;stroke:#ffffff;stroke-opacity:0.7;stroke-width:0.75;"/>
    <path clip-path="url(#p38597e03d4)" d="M 396.949825 280.831511 
C 398.06675 280.831511 399.138079 280.387752 399.927864 279.597967 
C 400.717649 278.808182 401.161408 277.736853 401.161408 276.619928 
C 401.161408 275.503003 400.717649 274.431675 399.927864 273.641889 
C 399.138079 272.852104 398.06675 272.408345 396.949825 272.408345 
C 395.8329 272.408345 394.761571 272.852104 393.971786 273.641889 
C 393.182001 274.431675 392.738242 275.503003 392.738242 276.619928 
C 392.738242 277.736853 393.182001 278.808182 393.971786 279.597967 
C 394.761571 280.387752 395.8329 280.831511 396.949825 280.831511 
z
" style="fill:#e0b0b3;fill-opacity:0.7;stroke:#ffffff;stroke-opacity:0.7;stroke-width:0.75;"/>
    <path clip-path="url(#p38597e03d4)" d="M 389.150339 280.506849 
C 389.743351 280.506849 390.312155 280.271242 390.731478 279.85192 
C 391.150801 279.432597 391.386407 278.863793 391.386407 278.270781 
C 391.386407 277.677769 391.150801 277.108965 390.731478 276.689642 
C 390.312155 276.270319 389.743351 276.034713 389.150339 276.034713 
C 388.557327 276.034713 387.988523 276.270319 387.5692 276.689642 
C 387.149877 277.108965 386.914271 277.677769 386.914271 278.270781 
C 386.914271 278.863793 387.149877 279.432597 387.5692 279.85192 
C 387.988523 280.271242 388.557327 280.506849 389.150339 280.506849 
z
" style="fill:#e7c1be;fill-opacity:0.7;stroke:#ffffff;stroke-opacity:0.7;stroke-width:0.75;"/>
    <path clip-path="url(#p38597e03d4)" d="M 379.91901 282.416646 
C 380.512023 282.416646 381.080826 282.18104 381.500149 281.761717 
C 381.919472 281.342394 382.155078 280.77359 382.155078 280.180578 
C 382.155078 279.587566 381.919472 279.018762 381.500149 278.599439 
C 381.080826 278.180116 380.512023 277.94451 379.91901 277.94451 
C 379.325998 277.94451 378.757195 278.180116 378.337872 278.599439 
C 377.918549 279.018762 377.682943 279.587566 377.682943 280.180578 
C 377.682943 280.77359 377.918549 281.342394 378.337872 281.761717 
C 378.757195 282.18104 379.325998 282.416646 379.91901 282.416646 
z
" style="fill:#e7c1be;fill-opacity:0.7;stroke:#ffffff;stroke-opacity:0.7;stroke-width:0.75;"/>
    <path clip-path="url(#p38597e03d4)" d="M 353.765721 291.339661 
C 355.46801 291.339661 357.100806 290.663335 358.304505 289.459635 
C 359.508205 288.255936 360.184531 286.62314 360.184531 284.920852 
C 360.184531 283.218563 359.508205 281.585767 358.304505 280.382068 
C 357.100806 279.178368 355.46801 278.502042 353.765721 278.502042 
C 352.063433 278.502042 350.430637 279.178368 349.226938 280.382068 
C 348.023238 281.585767 347.346912 283.218563 347.346912 284.920852 
C 347.346912 286.62314 348.023238 288.255936 349.226938 289.459635 
C 350.430637 290.663335 352.063433 291.339661 353.765721 291.339661 
z
" style="fill:#cf91a3;fill-opacity:0.7;stroke:#ffffff;stroke-opacity:0.7;stroke-width:0.75;"/>
    <path clip-path="url(#p38597e03d4)" d="M 335.564897 298.944056 
C 338.481862 298.944056 341.279748 297.785133 343.342353 295.722528 
C 345.404959 293.659922 346.563881 290.862036 346.563881 287.945071 
C 346.563881 285.028107 345.404959 282.230221 343.342353 280.167615 
C 341.279748 278.10501 338.481862 276.946087 335.564897 276.946087 
C 332.647932 276.946087 329.850046 278.10501 327.787441 280.167615 
C 325.724835 282.230221 324.565913 285.028107 324.565913 287.945071 
C 324.565913 290.862036 325.724835 293.659922 327.787441 295.722528 
C 329.850046 297.785133 332.647932 298.944056 335.564897 298.944056 
z
" style="fill:#693d6f;fill-opacity:0.7;stroke:#ffffff;stroke-opacity:0.7;stroke-width:0.75;"/>
    <path clip-path="url(#p38597e03d4)" d="M 313.92174 295.473508 
C 315.059577 295.473508 316.150963 295.021441 316.955535 294.21687 
C 317.760107 293.412298 318.212174 292.320911 318.212174 291.183075 
C 318.212174 290.045238 317.760107 288.953852 316.955535 288.14928 
C 316.150963 287.344708 315.059577 286.892641 313.92174 286.892641 
C 312.783904 286.892641 311.692517 287.344708 310.887946 288.14928 
C 310.083374 288.953852 309.631307 290.045238 309.631307 291.183075 
C 309.631307 292.320911 310.083374 293.412298 310.887946 294.21687 
C 311.692517 295.021441 312.783904 295.473508 313.92174 295.473508 
z
" style="fill:#e0afb3;fill-opacity:0.7;stroke:#ffffff;stroke-opacity:0.7;stroke-width:0.75;"/>
    <path clip-path="url(#p38597e03d4)" d="M 311.489299 297.938772 
C 313.191587 297.938772 314.824383 297.262446 316.028083 296.058747 
C 317.231782 294.855047 317.908108 293.222251 317.908108 291.519963 
C 317.908108 289.817675 317.231782 288.184878 316.028083 286.981179 
C 314.824383 285.777479 313.191587 285.101153 311.489299 285.101153 
C 309.787011 285.101153 308.154215 285.777479 306.950515 286.981179 
C 305.746815 288.184878 305.070489 289.817675 305.070489 291.519963 
C 305.070489 293.222251 305.746815 294.855047 306.950515 296.058747 
C 308.154215 297.262446 309.787011 297.938772 311.489299 297.938772 
z
" style="fill:#cf91a3;fill-opacity:0.7;stroke:#ffffff;stroke-opacity:0.7;stroke-width:0.75;"/>
    <path clip-path="url(#p38597e03d4)" d="M 307.871468 297.887738 
C 309.42912 297.887738 310.923185 297.268876 312.024612 296.16745 
C 313.126038 295.066023 313.7449 293.571958 313.7449 292.014306 
C 313.7449 290.456654 313.126038 288.962589 312.024612 287.861162 
C 310.923185 286.759736 309.42912 286.140874 307.871468 286.140874 
C 306.313815 286.140874 304.819751 286.759736 303.718324 287.861162 
C 302.616897 288.962589 301.998036 290.456654 301.998036 292.014306 
C 301.998036 293.571958 302.616897 295.066023 303.718324 296.16745 
C 304.819751 297.268876 306.313815 297.887738 307.871468 297.887738 
z
" style="fill:#d59aa7;fill-opacity:0.7;stroke:#ffffff;stroke-opacity:0.7;stroke-width:0.75;"/>
    <path clip-path="url(#p38597e03d4)" d="M 299.944789 299.8373 
C 301.741408 299.8373 303.464683 299.123496 304.735084 297.853095 
C 306.005485 296.582694 306.719289 294.859418 306.719289 293.0628 
C 306.719289 291.266181 306.005485 289.542906 304.735084 288.272505 
C 303.464683 287.002104 301.741408 286.288299 299.944789 286.288299 
C 298.148171 286.288299 296.424895 287.002104 295.154494 288.272505 
C 293.884093 289.542906 293.170289 291.266181 293.170289 293.0628 
C 293.170289 294.859418 293.884093 296.582694 295.154494 297.853095 
C 296.424895 299.123496 298.148171 299.8373 299.944789 299.8373 
z
" style="fill:#cb8ca0;fill-opacity:0.7;stroke:#ffffff;stroke-opacity:0.7;stroke-width:0.75;"/>
    <path clip-path="url(#p38597e03d4)" d="M 279.741931 299.79307 
C 280.879768 299.79307 281.971154 299.341003 282.775726 298.536431 
C 283.580298 297.731859 284.032365 296.640472 284.032365 295.502636 
C 284.032365 294.3648 283.580298 293.273413 282.775726 292.468841 
C 281.971154 291.66427 280.879768 291.212202 279.741931 291.212202 
C 278.604095 291.212202 277.512708 291.66427 276.708136 292.468841 
C 275.903565 293.273413 275.451497 294.3648 275.451497 295.502636 
C 275.451497 296.640472 275.903565 297.731859 276.708136 298.536431 
C 277.512708 299.341003 278.604095 299.79307 279.741931 299.79307 
z
" style="fill:#e0afb3;fill-opacity:0.7;stroke:#ffffff;stroke-opacity:0.7;stroke-width:0.75;"/>
    <path clip-path="url(#p38597e03d4)" d="M 277.685557 300.742327 
C 279.014533 300.742327 280.289256 300.214319 281.228983 299.274592 
C 282.168711 298.334864 282.696718 297.060141 282.696718 295.731166 
C 282.696718 294.402191 282.168711 293.127468 281.228983 292.18774 
C 280.289256 291.248013 279.014533 290.720005 277.685557 290.720005 
C 276.356582 290.720005 275.081859 291.248013 274.142132 292.18774 
C 273.202404 293.127468 272.674397 294.402191 272.674397 295.731166 
C 272.674397 297.060141 273.202404 298.334864 274.142132 299.274592 
C 275.081859 300.214319 276.356582 300.742327 277.685557 300.742327 
z
" style="fill:#dca6ae;fill-opacity:0.7;stroke:#ffffff;stroke-opacity:0.7;stroke-width:0.75;"/>
    <path clip-path="url(#p38597e03d4)" d="M 272.736491 299.9761 
C 273.718641 299.9761 274.660697 299.585888 275.355182 298.891403 
C 276.049667 298.196918 276.439879 297.254862 276.439879 296.272712 
C 276.439879 295.290562 276.049667 294.348506 275.355182 293.654021 
C 274.660697 292.959536 273.718641 292.569324 272.736491 292.569324 
C 271.754341 292.569324 270.812285 292.959536 270.1178 293.654021 
C 269.423315 294.348506 269.033103 295.290562 269.033103 296.272712 
C 269.033103 297.254862 269.423315 298.196918 270.1178 298.891403 
C 270.812285 299.585888 271.754341 299.9761 272.736491 299.9761 
z
" style="fill:#e3b5b7;fill-opacity:0.7;stroke:#ffffff;stroke-opacity:0.7;stroke-width:0.75;"/>
    <path clip-path="url(#p38597e03d4)" d="M 248.008659 309.854822 
C 250.973719 309.854822 253.817738 308.67679 255.914353 306.580176 
C 258.010967 304.483561 259.188998 301.639542 259.188998 298.674482 
C 259.188998 295.709421 258.010967 292.865402 255.914353 290.768788 
C 253.817738 288.672173 250.973719 287.494142 248.008659 287.494142 
C 245.043598 287.494142 242.199579 288.672173 240.102964 290.768788 
C 238.00635 292.865402 236.828319 295.709421 236.828319 298.674482 
C 236.828319 301.639542 238.00635 304.483561 240.102964 306.580176 
C 242.199579 308.67679 245.043598 309.854822 248.008659 309.854822 
z
" style="fill:#643a6b;fill-opacity:0.7;stroke:#ffffff;stroke-opacity:0.7;stroke-width:0.75;"/>
    <path clip-path="url(#p38597e03d4)" d="M 235.325877 302.373487 
C 236.028098 302.373487 236.701653 302.094492 237.198198 301.597946 
C 237.694743 301.101401 237.973739 300.427847 237.973739 299.725625 
C 237.973739 299.023404 237.694743 298.34985 237.198198 297.853304 
C 236.701653 297.356759 236.028098 297.077763 235.325877 297.077763 
C 234.623656 297.077763 233.950101 297.356759 233.453556 297.853304 
C 232.95701 298.34985 232.678015 299.023404 232.678015 299.725625 
C 232.678015 300.427847 232.95701 301.101401 233.453556 301.597946 
C 233.950101 302.094492 234.623656 302.373487 235.325877 302.373487 
z
" style="fill:#e6bebc;fill-opacity:0.7;stroke:#ffffff;stroke-opacity:0.7;stroke-width:0.75;"/>
    <path clip-path="url(#p38597e03d4)" d="M 215.787722 306.632378 
C 217.25175 306.632378 218.656012 306.050714 219.691237 305.015489 
C 220.726461 303.980265 221.308126 302.576002 221.308126 301.111974 
C 221.308126 299.647946 220.726461 298.243683 219.691237 297.208459 
C 218.656012 296.173235 217.25175 295.59157 215.787722 295.59157 
C 214.323693 295.59157 212.919431 296.173235 211.884206 297.208459 
C 210.848982 298.243683 210.267318 299.647946 210.267318 301.111974 
C 210.267318 302.576002 210.848982 303.980265 211.884206 305.015489 
C 212.919431 306.050714 214.323693 306.632378 215.787722 306.632378 
z
" style="fill:#d89faa;fill-opacity:0.7;stroke:#ffffff;stroke-opacity:0.7;stroke-width:0.75;"/>
    <path clip-path="url(#p38597e03d4)" d="M 208.590304 304.325978 
C 209.325331 304.325978 210.030352 304.033949 210.550095 303.514206 
C 211.069838 302.994463 211.361867 302.289442 211.361867 301.554415 
C 211.361867 300.819387 211.069838 300.114366 210.550095 299.594623 
C 210.030352 299.07488 209.325331 298.782851 208.590304 298.782851 
C 207.855276 298.782851 207.150255 299.07488 206.630512 299.594623 
C 206.110769 300.114366 205.81874 300.819387 205.81874 301.554415 
C 205.81874 302.289442 206.110769 302.994463 206.630512 303.514206 
C 207.150255 304.033949 207.855276 304.325978 208.590304 304.325978 
z
" style="fill:#e6bebc;fill-opacity:0.7;stroke:#ffffff;stroke-opacity:0.7;stroke-width:0.75;"/>
    <path clip-path="url(#p38597e03d4)" d="M 187.790337 306.926626 
C 188.928174 306.926626 190.01956 306.474559 190.824132 305.669987 
C 191.628704 304.865415 192.080771 303.774029 192.080771 302.636193 
C 192.080771 301.498356 191.628704 300.40697 190.824132 299.602398 
C 190.01956 298.797826 188.928174 298.345759 187.790337 298.345759 
C 186.652501 298.345759 185.561114 298.797826 184.756542 299.602398 
C 183.951971 300.40697 183.499904 301.498356 183.499904 302.636193 
C 183.499904 303.774029 183.951971 304.865415 184.756542 305.669987 
C 185.561114 306.474559 186.652501 306.926626 187.790337 306.926626 
z
" style="fill:#e0afb3;fill-opacity:0.7;stroke:#ffffff;stroke-opacity:0.7;stroke-width:0.75;"/>
   </g>
   <g id="PathCollection_2"/>
   <g id="PathCollection_3"/>
   <g id="PathCollection_4"/>
   <g id="PathCollection_5"/>
   <g id="PathCollection_6"/>
   <g id="PathCollection_7"/>
   <g id="matplotlib.axis_1">
    <g id="xtick_1">
     <g id="line2d_1">
      <defs>
       <path d="M 0 0 
L 0 3.5 
" id="m3e1817843a" style="stroke:#000000;stroke-width:0.8;"/>
      </defs>
      <g>
       <use style="stroke:#000000;stroke-width:0.8;" x="173.045455" xlink:href="#m3e1817843a" y="315"/>
      </g>
     </g>
     <g id="text_1">
      <!-- 0 -->
      <defs>
       <path d="M 31.78125 66.40625 
Q 24.171875 66.40625 20.328125 58.90625 
Q 16.5 51.421875 16.5 36.375 
Q 16.5 21.390625 20.328125 13.890625 
Q 24.171875 6.390625 31.78125 6.390625 
Q 39.453125 6.390625 43.28125 13.890625 
Q 47.125 21.390625 47.125 36.375 
Q 47.125 51.421875 43.28125 58.90625 
Q 39.453125 66.40625 31.78125 66.40625 
M 31.78125 74.21875 
Q 44.046875 74.21875 50.515625 64.515625 
Q 56.984375 54.828125 56.984375 36.375 
Q 56.984375 17.96875 50.515625 8.265625 
Q 44.046875 -1.421875 31.78125 -1.421875 
Q 19.53125 -1.421875 13.0625 8.265625 
Q 6.59375 17.96875 6.59375 36.375 
Q 6.59375 54.828125 13.0625 64.515625 
Q 19.53125 74.21875 31.78125 74.21875 
" id="DejaVuSans-30"/>
      </defs>
      <g transform="translate(169.864205 329.598437)scale(0.1 -0.1)">
       <use xlink:href="#DejaVuSans-30"/>
      </g>
     </g>
    </g>
    <g id="xtick_2">
     <g id="line2d_2">
      <g>
       <use style="stroke:#000000;stroke-width:0.8;" x="274.5" xlink:href="#m3e1817843a" y="315"/>
      </g>
     </g>
     <g id="text_2">
      <!-- 2 -->
      <defs>
       <path d="M 19.1875 8.296875 
L 53.609375 8.296875 
L 53.609375 0 
L 7.328125 0 
L 7.328125 8.296875 
Q 12.9375 14.109375 22.625 23.890625 
Q 32.328125 33.6875 34.8125 36.53125 
Q 39.546875 41.84375 41.421875 45.53125 
Q 43.3125 49.21875 43.3125 52.78125 
Q 43.3125 58.59375 39.234375 62.25 
Q 35.15625 65.921875 28.609375 65.921875 
Q 23.96875 65.921875 18.8125 64.3125 
Q 13.671875 62.703125 7.8125 59.421875 
L 7.8125 69.390625 
Q 13.765625 71.78125 18.9375 73 
Q 24.125 74.21875 28.421875 74.21875 
Q 39.75 74.21875 46.484375 68.546875 
Q 53.21875 62.890625 53.21875 53.421875 
Q 53.21875 48.921875 51.53125 44.890625 
Q 49.859375 40.875 45.40625 35.40625 
Q 44.1875 33.984375 37.640625 27.21875 
Q 31.109375 20.453125 19.1875 8.296875 
" id="DejaVuSans-32"/>
      </defs>
      <g transform="translate(271.31875 329.598437)scale(0.1 -0.1)">
       <use xlink:href="#DejaVuSans-32"/>
      </g>
     </g>
    </g>
    <g id="xtick_3">
     <g id="line2d_3">
      <g>
       <use style="stroke:#000000;stroke-width:0.8;" x="375.954545" xlink:href="#m3e1817843a" y="315"/>
      </g>
     </g>
     <g id="text_3">
      <!-- 4 -->
      <defs>
       <path d="M 37.796875 64.3125 
L 12.890625 25.390625 
L 37.796875 25.390625 
z
M 35.203125 72.90625 
L 47.609375 72.90625 
L 47.609375 25.390625 
L 58.015625 25.390625 
L 58.015625 17.1875 
L 47.609375 17.1875 
L 47.609375 0 
L 37.796875 0 
L 37.796875 17.1875 
L 4.890625 17.1875 
L 4.890625 26.703125 
z
" id="DejaVuSans-34"/>
      </defs>
      <g transform="translate(372.773295 329.598437)scale(0.1 -0.1)">
       <use xlink:href="#DejaVuSans-34"/>
      </g>
     </g>
    </g>
    <g id="xtick_4">
     <g id="line2d_4">
      <g>
       <use style="stroke:#000000;stroke-width:0.8;" x="477.409091" xlink:href="#m3e1817843a" y="315"/>
      </g>
     </g>
     <g id="text_4">
      <!-- 6 -->
      <defs>
       <path d="M 33.015625 40.375 
Q 26.375 40.375 22.484375 35.828125 
Q 18.609375 31.296875 18.609375 23.390625 
Q 18.609375 15.53125 22.484375 10.953125 
Q 26.375 6.390625 33.015625 6.390625 
Q 39.65625 6.390625 43.53125 10.953125 
Q 47.40625 15.53125 47.40625 23.390625 
Q 47.40625 31.296875 43.53125 35.828125 
Q 39.65625 40.375 33.015625 40.375 
M 52.59375 71.296875 
L 52.59375 62.3125 
Q 48.875 64.0625 45.09375 64.984375 
Q 41.3125 65.921875 37.59375 65.921875 
Q 27.828125 65.921875 22.671875 59.328125 
Q 17.53125 52.734375 16.796875 39.40625 
Q 19.671875 43.65625 24.015625 45.921875 
Q 28.375 48.1875 33.59375 48.1875 
Q 44.578125 48.1875 50.953125 41.515625 
Q 57.328125 34.859375 57.328125 23.390625 
Q 57.328125 12.15625 50.6875 5.359375 
Q 44.046875 -1.421875 33.015625 -1.421875 
Q 20.359375 -1.421875 13.671875 8.265625 
Q 6.984375 17.96875 6.984375 36.375 
Q 6.984375 53.65625 15.1875 63.9375 
Q 23.390625 74.21875 37.203125 74.21875 
Q 40.921875 74.21875 44.703125 73.484375 
Q 48.484375 72.75 52.59375 71.296875 
" id="DejaVuSans-36"/>
      </defs>
      <g transform="translate(474.227841 329.598437)scale(0.1 -0.1)">
       <use xlink:href="#DejaVuSans-36"/>
      </g>
     </g>
    </g>
    <g id="xtick_5">
     <g id="line2d_5">
      <g>
       <use style="stroke:#000000;stroke-width:0.8;" x="578.863636" xlink:href="#m3e1817843a" y="315"/>
      </g>
     </g>
     <g id="text_5">
      <!-- 8 -->
      <defs>
       <path d="M 31.78125 34.625 
Q 24.75 34.625 20.71875 30.859375 
Q 16.703125 27.09375 16.703125 20.515625 
Q 16.703125 13.921875 20.71875 10.15625 
Q 24.75 6.390625 31.78125 6.390625 
Q 38.8125 6.390625 42.859375 10.171875 
Q 46.921875 13.96875 46.921875 20.515625 
Q 46.921875 27.09375 42.890625 30.859375 
Q 38.875 34.625 31.78125 34.625 
M 21.921875 38.8125 
Q 15.578125 40.375 12.03125 44.71875 
Q 8.5 49.078125 8.5 55.328125 
Q 8.5 64.0625 14.71875 69.140625 
Q 20.953125 74.21875 31.78125 74.21875 
Q 42.671875 74.21875 48.875 69.140625 
Q 55.078125 64.0625 55.078125 55.328125 
Q 55.078125 49.078125 51.53125 44.71875 
Q 48 40.375 41.703125 38.8125 
Q 48.828125 37.15625 52.796875 32.3125 
Q 56.78125 27.484375 56.78125 20.515625 
Q 56.78125 9.90625 50.3125 4.234375 
Q 43.84375 -1.421875 31.78125 -1.421875 
Q 19.734375 -1.421875 13.25 4.234375 
Q 6.78125 9.90625 6.78125 20.515625 
Q 6.78125 27.484375 10.78125 32.3125 
Q 14.796875 37.15625 21.921875 38.8125 
M 18.3125 54.390625 
Q 18.3125 48.734375 21.84375 45.5625 
Q 25.390625 42.390625 31.78125 42.390625 
Q 38.140625 42.390625 41.71875 45.5625 
Q 45.3125 48.734375 45.3125 54.390625 
Q 45.3125 60.0625 41.71875 63.234375 
Q 38.140625 66.40625 31.78125 66.40625 
Q 25.390625 66.40625 21.84375 63.234375 
Q 18.3125 60.0625 18.3125 54.390625 
" id="DejaVuSans-38"/>
      </defs>
      <g transform="translate(575.682386 329.598437)scale(0.1 -0.1)">
       <use xlink:href="#DejaVuSans-38"/>
      </g>
     </g>
    </g>
    <g id="xtick_6">
     <g id="line2d_6">
      <g>
       <use style="stroke:#000000;stroke-width:0.8;" x="680.318182" xlink:href="#m3e1817843a" y="315"/>
      </g>
     </g>
     <g id="text_6">
      <!-- 10 -->
      <defs>
       <path d="M 12.40625 8.296875 
L 28.515625 8.296875 
L 28.515625 63.921875 
L 10.984375 60.40625 
L 10.984375 69.390625 
L 28.421875 72.90625 
L 38.28125 72.90625 
L 38.28125 8.296875 
L 54.390625 8.296875 
L 54.390625 0 
L 12.40625 0 
z
" id="DejaVuSans-31"/>
      </defs>
      <g transform="translate(673.955682 329.598437)scale(0.1 -0.1)">
       <use xlink:href="#DejaVuSans-31"/>
       <use x="63.623047" xlink:href="#DejaVuSans-30"/>
      </g>
     </g>
    </g>
    <g id="xtick_7">
     <g id="line2d_7">
      <g>
       <use style="stroke:#000000;stroke-width:0.8;" x="781.772727" xlink:href="#m3e1817843a" y="315"/>
      </g>
     </g>
     <g id="text_7">
      <!-- 12 -->
      <g transform="translate(775.410227 329.598437)scale(0.1 -0.1)">
       <use xlink:href="#DejaVuSans-31"/>
       <use x="63.623047" xlink:href="#DejaVuSans-32"/>
      </g>
     </g>
    </g>
    <g id="xtick_8">
     <g id="line2d_8">
      <g>
       <use style="stroke:#000000;stroke-width:0.8;" x="883.227273" xlink:href="#m3e1817843a" y="315"/>
      </g>
     </g>
     <g id="text_8">
      <!-- 14 -->
      <g transform="translate(876.864773 329.598437)scale(0.1 -0.1)">
       <use xlink:href="#DejaVuSans-31"/>
       <use x="63.623047" xlink:href="#DejaVuSans-34"/>
      </g>
     </g>
    </g>
    <g id="text_9">
     <!-- t-statistic -->
     <defs>
      <path d="M 18.3125 70.21875 
L 18.3125 54.6875 
L 36.8125 54.6875 
L 36.8125 47.703125 
L 18.3125 47.703125 
L 18.3125 18.015625 
Q 18.3125 11.328125 20.140625 9.421875 
Q 21.96875 7.515625 27.59375 7.515625 
L 36.8125 7.515625 
L 36.8125 0 
L 27.59375 0 
Q 17.1875 0 13.234375 3.875 
Q 9.28125 7.765625 9.28125 18.015625 
L 9.28125 47.703125 
L 2.6875 47.703125 
L 2.6875 54.6875 
L 9.28125 54.6875 
L 9.28125 70.21875 
z
" id="DejaVuSans-74"/>
      <path d="M 4.890625 31.390625 
L 31.203125 31.390625 
L 31.203125 23.390625 
L 4.890625 23.390625 
z
" id="DejaVuSans-2d"/>
      <path d="M 44.28125 53.078125 
L 44.28125 44.578125 
Q 40.484375 46.53125 36.375 47.5 
Q 32.28125 48.484375 27.875 48.484375 
Q 21.1875 48.484375 17.84375 46.4375 
Q 14.5 44.390625 14.5 40.28125 
Q 14.5 37.15625 16.890625 35.375 
Q 19.28125 33.59375 26.515625 31.984375 
L 29.59375 31.296875 
Q 39.15625 29.25 43.1875 25.515625 
Q 47.21875 21.78125 47.21875 15.09375 
Q 47.21875 7.46875 41.1875 3.015625 
Q 35.15625 -1.421875 24.609375 -1.421875 
Q 20.21875 -1.421875 15.453125 -0.5625 
Q 10.6875 0.296875 5.421875 2 
L 5.421875 11.28125 
Q 10.40625 8.6875 15.234375 7.390625 
Q 20.0625 6.109375 24.8125 6.109375 
Q 31.15625 6.109375 34.5625 8.28125 
Q 37.984375 10.453125 37.984375 14.40625 
Q 37.984375 18.0625 35.515625 20.015625 
Q 33.0625 21.96875 24.703125 23.78125 
L 21.578125 24.515625 
Q 13.234375 26.265625 9.515625 29.90625 
Q 5.8125 33.546875 5.8125 39.890625 
Q 5.8125 47.609375 11.28125 51.796875 
Q 16.75 56 26.8125 56 
Q 31.78125 56 36.171875 55.265625 
Q 40.578125 54.546875 44.28125 53.078125 
" id="DejaVuSans-73"/>
      <path d="M 34.28125 27.484375 
Q 23.390625 27.484375 19.1875 25 
Q 14.984375 22.515625 14.984375 16.5 
Q 14.984375 11.71875 18.140625 8.90625 
Q 21.296875 6.109375 26.703125 6.109375 
Q 34.1875 6.109375 38.703125 11.40625 
Q 43.21875 16.703125 43.21875 25.484375 
L 43.21875 27.484375 
z
M 52.203125 31.203125 
L 52.203125 0 
L 43.21875 0 
L 43.21875 8.296875 
Q 40.140625 3.328125 35.546875 0.953125 
Q 30.953125 -1.421875 24.3125 -1.421875 
Q 15.921875 -1.421875 10.953125 3.296875 
Q 6 8.015625 6 15.921875 
Q 6 25.140625 12.171875 29.828125 
Q 18.359375 34.515625 30.609375 34.515625 
L 43.21875 34.515625 
L 43.21875 35.40625 
Q 43.21875 41.609375 39.140625 45 
Q 35.0625 48.390625 27.6875 48.390625 
Q 23 48.390625 18.546875 47.265625 
Q 14.109375 46.140625 10.015625 43.890625 
L 10.015625 52.203125 
Q 14.9375 54.109375 19.578125 55.046875 
Q 24.21875 56 28.609375 56 
Q 40.484375 56 46.34375 49.84375 
Q 52.203125 43.703125 52.203125 31.203125 
" id="DejaVuSans-61"/>
      <path d="M 9.421875 54.6875 
L 18.40625 54.6875 
L 18.40625 0 
L 9.421875 0 
z
M 9.421875 75.984375 
L 18.40625 75.984375 
L 18.40625 64.59375 
L 9.421875 64.59375 
z
" id="DejaVuSans-69"/>
      <path d="M 48.78125 52.59375 
L 48.78125 44.1875 
Q 44.96875 46.296875 41.140625 47.34375 
Q 37.3125 48.390625 33.40625 48.390625 
Q 24.65625 48.390625 19.8125 42.84375 
Q 14.984375 37.3125 14.984375 27.296875 
Q 14.984375 17.28125 19.8125 11.734375 
Q 24.65625 6.203125 33.40625 6.203125 
Q 37.3125 6.203125 41.140625 7.25 
Q 44.96875 8.296875 48.78125 10.40625 
L 48.78125 2.09375 
Q 45.015625 0.34375 40.984375 -0.53125 
Q 36.96875 -1.421875 32.421875 -1.421875 
Q 20.0625 -1.421875 12.78125 6.34375 
Q 5.515625 14.109375 5.515625 27.296875 
Q 5.515625 40.671875 12.859375 48.328125 
Q 20.21875 56 33.015625 56 
Q 37.15625 56 41.109375 55.140625 
Q 45.0625 54.296875 48.78125 52.59375 
" id="DejaVuSans-63"/>
     </defs>
     <g transform="translate(530.054688 343.276563)scale(0.1 -0.1)">
      <use xlink:href="#DejaVuSans-74"/>
      <use x="39.208984" xlink:href="#DejaVuSans-2d"/>
      <use x="75.292969" xlink:href="#DejaVuSans-73"/>
      <use x="127.392578" xlink:href="#DejaVuSans-74"/>
      <use x="166.601562" xlink:href="#DejaVuSans-61"/>
      <use x="227.880859" xlink:href="#DejaVuSans-74"/>
      <use x="267.089844" xlink:href="#DejaVuSans-69"/>
      <use x="294.873047" xlink:href="#DejaVuSans-73"/>
      <use x="346.972656" xlink:href="#DejaVuSans-74"/>
      <use x="386.181641" xlink:href="#DejaVuSans-69"/>
      <use x="413.964844" xlink:href="#DejaVuSans-63"/>
     </g>
    </g>
   </g>
   <g id="matplotlib.axis_2">
    <g id="ytick_1">
     <g id="line2d_9">
      <defs>
       <path d="M 0 0 
L -3.5 0 
" id="mf34b162179" style="stroke:#000000;stroke-width:0.8;"/>
      </defs>
      <g>
       <use style="stroke:#000000;stroke-width:0.8;" x="135" xlink:href="#mf34b162179" y="303.237719"/>
      </g>
     </g>
     <g id="text_10">
      <!-- 0 -->
      <g transform="translate(121.6375 307.036938)scale(0.1 -0.1)">
       <use xlink:href="#DejaVuSans-30"/>
      </g>
     </g>
    </g>
    <g id="ytick_2">
     <g id="line2d_10">
      <g>
       <use style="stroke:#000000;stroke-width:0.8;" x="135" xlink:href="#mf34b162179" y="249.89659"/>
      </g>
     </g>
     <g id="text_11">
      <!-- 10 -->
      <g transform="translate(115.275 253.695809)scale(0.1 -0.1)">
       <use xlink:href="#DejaVuSans-31"/>
       <use x="63.623047" xlink:href="#DejaVuSans-30"/>
      </g>
     </g>
    </g>
    <g id="ytick_3">
     <g id="line2d_11">
      <g>
       <use style="stroke:#000000;stroke-width:0.8;" x="135" xlink:href="#mf34b162179" y="196.555461"/>
      </g>
     </g>
     <g id="text_12">
      <!-- 20 -->
      <g transform="translate(115.275 200.35468)scale(0.1 -0.1)">
       <use xlink:href="#DejaVuSans-32"/>
       <use x="63.623047" xlink:href="#DejaVuSans-30"/>
      </g>
     </g>
    </g>
    <g id="ytick_4">
     <g id="line2d_12">
      <g>
       <use style="stroke:#000000;stroke-width:0.8;" x="135" xlink:href="#mf34b162179" y="143.214332"/>
      </g>
     </g>
     <g id="text_13">
      <!-- 30 -->
      <defs>
       <path d="M 40.578125 39.3125 
Q 47.65625 37.796875 51.625 33 
Q 55.609375 28.21875 55.609375 21.1875 
Q 55.609375 10.40625 48.1875 4.484375 
Q 40.765625 -1.421875 27.09375 -1.421875 
Q 22.515625 -1.421875 17.65625 -0.515625 
Q 12.796875 0.390625 7.625 2.203125 
L 7.625 11.71875 
Q 11.71875 9.328125 16.59375 8.109375 
Q 21.484375 6.890625 26.8125 6.890625 
Q 36.078125 6.890625 40.9375 10.546875 
Q 45.796875 14.203125 45.796875 21.1875 
Q 45.796875 27.640625 41.28125 31.265625 
Q 36.765625 34.90625 28.71875 34.90625 
L 20.21875 34.90625 
L 20.21875 43.015625 
L 29.109375 43.015625 
Q 36.375 43.015625 40.234375 45.921875 
Q 44.09375 48.828125 44.09375 54.296875 
Q 44.09375 59.90625 40.109375 62.90625 
Q 36.140625 65.921875 28.71875 65.921875 
Q 24.65625 65.921875 20.015625 65.03125 
Q 15.375 64.15625 9.8125 62.3125 
L 9.8125 71.09375 
Q 15.4375 72.65625 20.34375 73.4375 
Q 25.25 74.21875 29.59375 74.21875 
Q 40.828125 74.21875 47.359375 69.109375 
Q 53.90625 64.015625 53.90625 55.328125 
Q 53.90625 49.265625 50.4375 45.09375 
Q 46.96875 40.921875 40.578125 39.3125 
" id="DejaVuSans-33"/>
      </defs>
      <g transform="translate(115.275 147.013551)scale(0.1 -0.1)">
       <use xlink:href="#DejaVuSans-33"/>
       <use x="63.623047" xlink:href="#DejaVuSans-30"/>
      </g>
     </g>
    </g>
    <g id="ytick_5">
     <g id="line2d_13">
      <g>
       <use style="stroke:#000000;stroke-width:0.8;" x="135" xlink:href="#mf34b162179" y="89.873203"/>
      </g>
     </g>
     <g id="text_14">
      <!-- 40 -->
      <g transform="translate(115.275 93.672422)scale(0.1 -0.1)">
       <use xlink:href="#DejaVuSans-34"/>
       <use x="63.623047" xlink:href="#DejaVuSans-30"/>
      </g>
     </g>
    </g>
    <g id="text_15">
     <!-- -log(p) -->
     <defs>
      <path d="M 9.421875 75.984375 
L 18.40625 75.984375 
L 18.40625 0 
L 9.421875 0 
z
" id="DejaVuSans-6c"/>
      <path d="M 30.609375 48.390625 
Q 23.390625 48.390625 19.1875 42.75 
Q 14.984375 37.109375 14.984375 27.296875 
Q 14.984375 17.484375 19.15625 11.84375 
Q 23.34375 6.203125 30.609375 6.203125 
Q 37.796875 6.203125 41.984375 11.859375 
Q 46.1875 17.53125 46.1875 27.296875 
Q 46.1875 37.015625 41.984375 42.703125 
Q 37.796875 48.390625 30.609375 48.390625 
M 30.609375 56 
Q 42.328125 56 49.015625 48.375 
Q 55.71875 40.765625 55.71875 27.296875 
Q 55.71875 13.875 49.015625 6.21875 
Q 42.328125 -1.421875 30.609375 -1.421875 
Q 18.84375 -1.421875 12.171875 6.21875 
Q 5.515625 13.875 5.515625 27.296875 
Q 5.515625 40.765625 12.171875 48.375 
Q 18.84375 56 30.609375 56 
" id="DejaVuSans-6f"/>
      <path d="M 45.40625 27.984375 
Q 45.40625 37.75 41.375 43.109375 
Q 37.359375 48.484375 30.078125 48.484375 
Q 22.859375 48.484375 18.828125 43.109375 
Q 14.796875 37.75 14.796875 27.984375 
Q 14.796875 18.265625 18.828125 12.890625 
Q 22.859375 7.515625 30.078125 7.515625 
Q 37.359375 7.515625 41.375 12.890625 
Q 45.40625 18.265625 45.40625 27.984375 
M 54.390625 6.78125 
Q 54.390625 -7.171875 48.1875 -13.984375 
Q 42 -20.796875 29.203125 -20.796875 
Q 24.46875 -20.796875 20.265625 -20.09375 
Q 16.0625 -19.390625 12.109375 -17.921875 
L 12.109375 -9.1875 
Q 16.0625 -11.328125 19.921875 -12.34375 
Q 23.78125 -13.375 27.78125 -13.375 
Q 36.625 -13.375 41.015625 -8.765625 
Q 45.40625 -4.15625 45.40625 5.171875 
L 45.40625 9.625 
Q 42.625 4.78125 38.28125 2.390625 
Q 33.9375 0 27.875 0 
Q 17.828125 0 11.671875 7.65625 
Q 5.515625 15.328125 5.515625 27.984375 
Q 5.515625 40.671875 11.671875 48.328125 
Q 17.828125 56 27.875 56 
Q 33.9375 56 38.28125 53.609375 
Q 42.625 51.21875 45.40625 46.390625 
L 45.40625 54.6875 
L 54.390625 54.6875 
z
" id="DejaVuSans-67"/>
      <path d="M 31 75.875 
Q 24.46875 64.65625 21.28125 53.65625 
Q 18.109375 42.671875 18.109375 31.390625 
Q 18.109375 20.125 21.3125 9.0625 
Q 24.515625 -2 31 -13.1875 
L 23.1875 -13.1875 
Q 15.875 -1.703125 12.234375 9.375 
Q 8.59375 20.453125 8.59375 31.390625 
Q 8.59375 42.28125 12.203125 53.3125 
Q 15.828125 64.359375 23.1875 75.875 
z
" id="DejaVuSans-28"/>
      <path d="M 18.109375 8.203125 
L 18.109375 -20.796875 
L 9.078125 -20.796875 
L 9.078125 54.6875 
L 18.109375 54.6875 
L 18.109375 46.390625 
Q 20.953125 51.265625 25.265625 53.625 
Q 29.59375 56 35.59375 56 
Q 45.5625 56 51.78125 48.09375 
Q 58.015625 40.1875 58.015625 27.296875 
Q 58.015625 14.40625 51.78125 6.484375 
Q 45.5625 -1.421875 35.59375 -1.421875 
Q 29.59375 -1.421875 25.265625 0.953125 
Q 20.953125 3.328125 18.109375 8.203125 
M 48.6875 27.296875 
Q 48.6875 37.203125 44.609375 42.84375 
Q 40.53125 48.484375 33.40625 48.484375 
Q 26.265625 48.484375 22.1875 42.84375 
Q 18.109375 37.203125 18.109375 27.296875 
Q 18.109375 17.390625 22.1875 11.75 
Q 26.265625 6.109375 33.40625 6.109375 
Q 40.53125 6.109375 44.609375 11.75 
Q 48.6875 17.390625 48.6875 27.296875 
" id="DejaVuSans-70"/>
      <path d="M 8.015625 75.875 
L 15.828125 75.875 
Q 23.140625 64.359375 26.78125 53.3125 
Q 30.421875 42.28125 30.421875 31.390625 
Q 30.421875 20.453125 26.78125 9.375 
Q 23.140625 -1.703125 15.828125 -13.1875 
L 8.015625 -13.1875 
Q 14.5 -2 17.703125 9.0625 
Q 20.90625 20.125 20.90625 31.390625 
Q 20.90625 42.671875 17.703125 53.65625 
Q 14.5 64.65625 8.015625 75.875 
" id="DejaVuSans-29"/>
     </defs>
     <g transform="translate(109.195312 195.602344)rotate(-90)scale(0.1 -0.1)">
      <use xlink:href="#DejaVuSans-2d"/>
      <use x="36.083984" xlink:href="#DejaVuSans-6c"/>
      <use x="63.867188" xlink:href="#DejaVuSans-6f"/>
      <use x="125.048828" xlink:href="#DejaVuSans-67"/>
      <use x="188.525391" xlink:href="#DejaVuSans-28"/>
      <use x="227.539062" xlink:href="#DejaVuSans-70"/>
      <use x="291.015625" xlink:href="#DejaVuSans-29"/>
     </g>
    </g>
   </g>
   <g id="line2d_14">
    <path clip-path="url(#p38597e03d4)" d="M 173.045455 296.72024 
L 933.954545 296.72024 
" style="fill:none;opacity:0.5;stroke:#808080;stroke-dasharray:5.6,2.4;stroke-dashoffset:0;"/>
   </g>
   <g id="patch_3">
    <path d="M 135 315 
L 135 43.2 
" style="fill:none;stroke:#000000;stroke-linecap:square;stroke-linejoin:miter;stroke-width:0.8;"/>
   </g>
   <g id="patch_4">
    <path d="M 135 315 
L 972 315 
" style="fill:none;stroke:#000000;stroke-linecap:square;stroke-linejoin:miter;stroke-width:0.8;"/>
   </g>
   <g id="text_16">
    <!-- breast -->
    <defs>
     <path d="M 48.6875 27.296875 
Q 48.6875 37.203125 44.609375 42.84375 
Q 40.53125 48.484375 33.40625 48.484375 
Q 26.265625 48.484375 22.1875 42.84375 
Q 18.109375 37.203125 18.109375 27.296875 
Q 18.109375 17.390625 22.1875 11.75 
Q 26.265625 6.109375 33.40625 6.109375 
Q 40.53125 6.109375 44.609375 11.75 
Q 48.6875 17.390625 48.6875 27.296875 
M 18.109375 46.390625 
Q 20.953125 51.265625 25.265625 53.625 
Q 29.59375 56 35.59375 56 
Q 45.5625 56 51.78125 48.09375 
Q 58.015625 40.1875 58.015625 27.296875 
Q 58.015625 14.40625 51.78125 6.484375 
Q 45.5625 -1.421875 35.59375 -1.421875 
Q 29.59375 -1.421875 25.265625 0.953125 
Q 20.953125 3.328125 18.109375 8.203125 
L 18.109375 0 
L 9.078125 0 
L 9.078125 75.984375 
L 18.109375 75.984375 
z
" id="DejaVuSans-62"/>
     <path d="M 41.109375 46.296875 
Q 39.59375 47.171875 37.8125 47.578125 
Q 36.03125 48 33.890625 48 
Q 26.265625 48 22.1875 43.046875 
Q 18.109375 38.09375 18.109375 28.8125 
L 18.109375 0 
L 9.078125 0 
L 9.078125 54.6875 
L 18.109375 54.6875 
L 18.109375 46.1875 
Q 20.953125 51.171875 25.484375 53.578125 
Q 30.03125 56 36.53125 56 
Q 37.453125 56 38.578125 55.875 
Q 39.703125 55.765625 41.0625 55.515625 
z
" id="DejaVuSans-72"/>
     <path d="M 56.203125 29.59375 
L 56.203125 25.203125 
L 14.890625 25.203125 
Q 15.484375 15.921875 20.484375 11.0625 
Q 25.484375 6.203125 34.421875 6.203125 
Q 39.59375 6.203125 44.453125 7.46875 
Q 49.3125 8.734375 54.109375 11.28125 
L 54.109375 2.78125 
Q 49.265625 0.734375 44.1875 -0.34375 
Q 39.109375 -1.421875 33.890625 -1.421875 
Q 20.796875 -1.421875 13.15625 6.1875 
Q 5.515625 13.8125 5.515625 26.8125 
Q 5.515625 40.234375 12.765625 48.109375 
Q 20.015625 56 32.328125 56 
Q 43.359375 56 49.78125 48.890625 
Q 56.203125 41.796875 56.203125 29.59375 
M 47.21875 32.234375 
Q 47.125 39.59375 43.09375 43.984375 
Q 39.0625 48.390625 32.421875 48.390625 
Q 24.90625 48.390625 20.390625 44.140625 
Q 15.875 39.890625 15.1875 32.171875 
z
" id="DejaVuSans-65"/>
    </defs>
    <g transform="translate(908.922973 103.437701)rotate(-90)scale(0.1 -0.1)">
     <use xlink:href="#DejaVuSans-62"/>
     <use x="63.476562" xlink:href="#DejaVuSans-72"/>
     <use x="104.558594" xlink:href="#DejaVuSans-65"/>
     <use x="166.082031" xlink:href="#DejaVuSans-61"/>
     <use x="227.361328" xlink:href="#DejaVuSans-73"/>
     <use x="279.460938" xlink:href="#DejaVuSans-74"/>
    </g>
   </g>
   <g id="text_17">
    <!-- kidney -->
    <defs>
     <path d="M 9.078125 75.984375 
L 18.109375 75.984375 
L 18.109375 31.109375 
L 44.921875 54.6875 
L 56.390625 54.6875 
L 27.390625 29.109375 
L 57.625 0 
L 45.90625 0 
L 18.109375 26.703125 
L 18.109375 0 
L 9.078125 0 
z
" id="DejaVuSans-6b"/>
     <path d="M 45.40625 46.390625 
L 45.40625 75.984375 
L 54.390625 75.984375 
L 54.390625 0 
L 45.40625 0 
L 45.40625 8.203125 
Q 42.578125 3.328125 38.25 0.953125 
Q 33.9375 -1.421875 27.875 -1.421875 
Q 17.96875 -1.421875 11.734375 6.484375 
Q 5.515625 14.40625 5.515625 27.296875 
Q 5.515625 40.1875 11.734375 48.09375 
Q 17.96875 56 27.875 56 
Q 33.9375 56 38.25 53.625 
Q 42.578125 51.265625 45.40625 46.390625 
M 14.796875 27.296875 
Q 14.796875 17.390625 18.875 11.75 
Q 22.953125 6.109375 30.078125 6.109375 
Q 37.203125 6.109375 41.296875 11.75 
Q 45.40625 17.390625 45.40625 27.296875 
Q 45.40625 37.203125 41.296875 42.84375 
Q 37.203125 48.484375 30.078125 48.484375 
Q 22.953125 48.484375 18.875 42.84375 
Q 14.796875 37.203125 14.796875 27.296875 
" id="DejaVuSans-64"/>
     <path d="M 54.890625 33.015625 
L 54.890625 0 
L 45.90625 0 
L 45.90625 32.71875 
Q 45.90625 40.484375 42.875 44.328125 
Q 39.84375 48.1875 33.796875 48.1875 
Q 26.515625 48.1875 22.3125 43.546875 
Q 18.109375 38.921875 18.109375 30.90625 
L 18.109375 0 
L 9.078125 0 
L 9.078125 54.6875 
L 18.109375 54.6875 
L 18.109375 46.1875 
Q 21.34375 51.125 25.703125 53.5625 
Q 30.078125 56 35.796875 56 
Q 45.21875 56 50.046875 50.171875 
Q 54.890625 44.34375 54.890625 33.015625 
" id="DejaVuSans-6e"/>
     <path d="M 32.171875 -5.078125 
Q 28.375 -14.84375 24.75 -17.8125 
Q 21.140625 -20.796875 15.09375 -20.796875 
L 7.90625 -20.796875 
L 7.90625 -13.28125 
L 13.1875 -13.28125 
Q 16.890625 -13.28125 18.9375 -11.515625 
Q 21 -9.765625 23.484375 -3.21875 
L 25.09375 0.875 
L 2.984375 54.6875 
L 12.5 54.6875 
L 29.59375 11.921875 
L 46.6875 54.6875 
L 56.203125 54.6875 
z
" id="DejaVuSans-79"/>
    </defs>
    <g transform="translate(699.421398 158.150059)rotate(-90)scale(0.1 -0.1)">
     <use xlink:href="#DejaVuSans-6b"/>
     <use x="57.910156" xlink:href="#DejaVuSans-69"/>
     <use x="85.693359" xlink:href="#DejaVuSans-64"/>
     <use x="149.169922" xlink:href="#DejaVuSans-6e"/>
     <use x="212.548828" xlink:href="#DejaVuSans-65"/>
     <use x="274.072266" xlink:href="#DejaVuSans-79"/>
    </g>
   </g>
   <g id="text_18">
    <!-- bone -->
    <g transform="translate(599.695815 201.192469)rotate(-90)scale(0.1 -0.1)">
     <use xlink:href="#DejaVuSans-62"/>
     <use x="63.476562" xlink:href="#DejaVuSans-6f"/>
     <use x="124.658203" xlink:href="#DejaVuSans-6e"/>
     <use x="188.037109" xlink:href="#DejaVuSans-65"/>
    </g>
   </g>
   <g id="text_19">
    <!-- autonomic_ganglia -->
    <defs>
     <path d="M 8.5 21.578125 
L 8.5 54.6875 
L 17.484375 54.6875 
L 17.484375 21.921875 
Q 17.484375 14.15625 20.5 10.265625 
Q 23.53125 6.390625 29.59375 6.390625 
Q 36.859375 6.390625 41.078125 11.03125 
Q 45.3125 15.671875 45.3125 23.6875 
L 45.3125 54.6875 
L 54.296875 54.6875 
L 54.296875 0 
L 45.3125 0 
L 45.3125 8.40625 
Q 42.046875 3.421875 37.71875 1 
Q 33.40625 -1.421875 27.6875 -1.421875 
Q 18.265625 -1.421875 13.375 4.4375 
Q 8.5 10.296875 8.5 21.578125 
M 31.109375 56 
z
" id="DejaVuSans-75"/>
     <path d="M 52 44.1875 
Q 55.375 50.25 60.0625 53.125 
Q 64.75 56 71.09375 56 
Q 79.640625 56 84.28125 50.015625 
Q 88.921875 44.046875 88.921875 33.015625 
L 88.921875 0 
L 79.890625 0 
L 79.890625 32.71875 
Q 79.890625 40.578125 77.09375 44.375 
Q 74.3125 48.1875 68.609375 48.1875 
Q 61.625 48.1875 57.5625 43.546875 
Q 53.515625 38.921875 53.515625 30.90625 
L 53.515625 0 
L 44.484375 0 
L 44.484375 32.71875 
Q 44.484375 40.625 41.703125 44.40625 
Q 38.921875 48.1875 33.109375 48.1875 
Q 26.21875 48.1875 22.15625 43.53125 
Q 18.109375 38.875 18.109375 30.90625 
L 18.109375 0 
L 9.078125 0 
L 9.078125 54.6875 
L 18.109375 54.6875 
L 18.109375 46.1875 
Q 21.1875 51.21875 25.484375 53.609375 
Q 29.78125 56 35.6875 56 
Q 41.65625 56 45.828125 52.96875 
Q 50 49.953125 52 44.1875 
" id="DejaVuSans-6d"/>
     <path d="M 50.984375 -16.609375 
L 50.984375 -23.578125 
L -0.984375 -23.578125 
L -0.984375 -16.609375 
z
" id="DejaVuSans-5f"/>
    </defs>
    <g transform="translate(501.706042 234.572434)rotate(-90)scale(0.1 -0.1)">
     <use xlink:href="#DejaVuSans-61"/>
     <use x="61.279297" xlink:href="#DejaVuSans-75"/>
     <use x="124.658203" xlink:href="#DejaVuSans-74"/>
     <use x="163.867188" xlink:href="#DejaVuSans-6f"/>
     <use x="225.048828" xlink:href="#DejaVuSans-6e"/>
     <use x="288.427734" xlink:href="#DejaVuSans-6f"/>
     <use x="349.609375" xlink:href="#DejaVuSans-6d"/>
     <use x="447.021484" xlink:href="#DejaVuSans-69"/>
     <use x="474.804688" xlink:href="#DejaVuSans-63"/>
     <use x="529.785156" xlink:href="#DejaVuSans-5f"/>
     <use x="579.785156" xlink:href="#DejaVuSans-67"/>
     <use x="643.261719" xlink:href="#DejaVuSans-61"/>
     <use x="704.541016" xlink:href="#DejaVuSans-6e"/>
     <use x="767.919922" xlink:href="#DejaVuSans-67"/>
     <use x="831.396484" xlink:href="#DejaVuSans-6c"/>
     <use x="859.179688" xlink:href="#DejaVuSans-69"/>
     <use x="886.962891" xlink:href="#DejaVuSans-61"/>
    </g>
   </g>
   <g id="text_20">
    <!-- upper_aerodigestive_tract -->
    <defs>
     <path d="M 2.984375 54.6875 
L 12.5 54.6875 
L 29.59375 8.796875 
L 46.6875 54.6875 
L 56.203125 54.6875 
L 35.6875 0 
L 23.484375 0 
z
" id="DejaVuSans-76"/>
    </defs>
    <g transform="translate(434.369523 252.757156)rotate(-90)scale(0.1 -0.1)">
     <use xlink:href="#DejaVuSans-75"/>
     <use x="63.378906" xlink:href="#DejaVuSans-70"/>
     <use x="126.855469" xlink:href="#DejaVuSans-70"/>
     <use x="190.332031" xlink:href="#DejaVuSans-65"/>
     <use x="251.855469" xlink:href="#DejaVuSans-72"/>
     <use x="292.96875" xlink:href="#DejaVuSans-5f"/>
     <use x="342.96875" xlink:href="#DejaVuSans-61"/>
     <use x="404.248047" xlink:href="#DejaVuSans-65"/>
     <use x="465.771484" xlink:href="#DejaVuSans-72"/>
     <use x="506.853516" xlink:href="#DejaVuSans-6f"/>
     <use x="568.035156" xlink:href="#DejaVuSans-64"/>
     <use x="631.511719" xlink:href="#DejaVuSans-69"/>
     <use x="659.294922" xlink:href="#DejaVuSans-67"/>
     <use x="722.771484" xlink:href="#DejaVuSans-65"/>
     <use x="784.294922" xlink:href="#DejaVuSans-73"/>
     <use x="836.394531" xlink:href="#DejaVuSans-74"/>
     <use x="875.603516" xlink:href="#DejaVuSans-69"/>
     <use x="903.386719" xlink:href="#DejaVuSans-76"/>
     <use x="962.566406" xlink:href="#DejaVuSans-65"/>
     <use x="1024.089844" xlink:href="#DejaVuSans-5f"/>
     <use x="1074.089844" xlink:href="#DejaVuSans-74"/>
     <use x="1113.298828" xlink:href="#DejaVuSans-72"/>
     <use x="1154.412109" xlink:href="#DejaVuSans-61"/>
     <use x="1215.691406" xlink:href="#DejaVuSans-63"/>
     <use x="1270.671875" xlink:href="#DejaVuSans-74"/>
    </g>
   </g>
   <g id="text_21">
    <!-- oesophagus -->
    <defs>
     <path d="M 54.890625 33.015625 
L 54.890625 0 
L 45.90625 0 
L 45.90625 32.71875 
Q 45.90625 40.484375 42.875 44.328125 
Q 39.84375 48.1875 33.796875 48.1875 
Q 26.515625 48.1875 22.3125 43.546875 
Q 18.109375 38.921875 18.109375 30.90625 
L 18.109375 0 
L 9.078125 0 
L 9.078125 75.984375 
L 18.109375 75.984375 
L 18.109375 46.1875 
Q 21.34375 51.125 25.703125 53.5625 
Q 30.078125 56 35.796875 56 
Q 45.21875 56 50.046875 50.171875 
Q 54.890625 44.34375 54.890625 33.015625 
" id="DejaVuSans-68"/>
    </defs>
    <g transform="translate(399.7092 260.617589)rotate(-90)scale(0.1 -0.1)">
     <use xlink:href="#DejaVuSans-6f"/>
     <use x="61.181641" xlink:href="#DejaVuSans-65"/>
     <use x="122.705078" xlink:href="#DejaVuSans-73"/>
     <use x="174.804688" xlink:href="#DejaVuSans-6f"/>
     <use x="235.986328" xlink:href="#DejaVuSans-70"/>
     <use x="299.462891" xlink:href="#DejaVuSans-68"/>
     <use x="362.841797" xlink:href="#DejaVuSans-61"/>
     <use x="424.121094" xlink:href="#DejaVuSans-67"/>
     <use x="487.597656" xlink:href="#DejaVuSans-75"/>
     <use x="550.976562" xlink:href="#DejaVuSans-73"/>
    </g>
   </g>
   <g id="text_22">
    <!-- biliary_tract -->
    <g transform="translate(391.770651 262.268442)rotate(-90)scale(0.1 -0.1)">
     <use xlink:href="#DejaVuSans-62"/>
     <use x="63.476562" xlink:href="#DejaVuSans-69"/>
     <use x="91.259766" xlink:href="#DejaVuSans-6c"/>
     <use x="119.042969" xlink:href="#DejaVuSans-69"/>
     <use x="146.826172" xlink:href="#DejaVuSans-61"/>
     <use x="208.105469" xlink:href="#DejaVuSans-72"/>
     <use x="249.21875" xlink:href="#DejaVuSans-79"/>
     <use x="308.398438" xlink:href="#DejaVuSans-5f"/>
     <use x="358.398438" xlink:href="#DejaVuSans-74"/>
     <use x="397.607422" xlink:href="#DejaVuSans-72"/>
     <use x="438.720703" xlink:href="#DejaVuSans-61"/>
     <use x="500" xlink:href="#DejaVuSans-63"/>
     <use x="554.980469" xlink:href="#DejaVuSans-74"/>
    </g>
   </g>
   <g id="text_23">
    <!-- prostate -->
    <g transform="translate(382.678385 264.17824)rotate(-90)scale(0.1 -0.1)">
     <use xlink:href="#DejaVuSans-70"/>
     <use x="63.476562" xlink:href="#DejaVuSans-72"/>
     <use x="104.558594" xlink:href="#DejaVuSans-6f"/>
     <use x="165.740234" xlink:href="#DejaVuSans-73"/>
     <use x="217.839844" xlink:href="#DejaVuSans-74"/>
     <use x="257.048828" xlink:href="#DejaVuSans-61"/>
     <use x="318.328125" xlink:href="#DejaVuSans-74"/>
     <use x="357.537109" xlink:href="#DejaVuSans-65"/>
    </g>
   </g>
   <g id="text_24">
    <!-- skin -->
    <g transform="translate(356.525096 268.918513)rotate(-90)scale(0.1 -0.1)">
     <use xlink:href="#DejaVuSans-73"/>
     <use x="52.099609" xlink:href="#DejaVuSans-6b"/>
     <use x="110.009766" xlink:href="#DejaVuSans-69"/>
     <use x="137.792969" xlink:href="#DejaVuSans-6e"/>
    </g>
   </g>
   <g id="text_25">
    <!-- haematopoietic_and_lymphoid_tissue -->
    <g transform="translate(338.185209 271.942733)rotate(-90)scale(0.1 -0.1)">
     <use xlink:href="#DejaVuSans-68"/>
     <use x="63.378906" xlink:href="#DejaVuSans-61"/>
     <use x="124.658203" xlink:href="#DejaVuSans-65"/>
     <use x="186.181641" xlink:href="#DejaVuSans-6d"/>
     <use x="283.59375" xlink:href="#DejaVuSans-61"/>
     <use x="344.873047" xlink:href="#DejaVuSans-74"/>
     <use x="384.082031" xlink:href="#DejaVuSans-6f"/>
     <use x="445.263672" xlink:href="#DejaVuSans-70"/>
     <use x="508.740234" xlink:href="#DejaVuSans-6f"/>
     <use x="569.921875" xlink:href="#DejaVuSans-69"/>
     <use x="597.705078" xlink:href="#DejaVuSans-65"/>
     <use x="659.228516" xlink:href="#DejaVuSans-74"/>
     <use x="698.4375" xlink:href="#DejaVuSans-69"/>
     <use x="726.220703" xlink:href="#DejaVuSans-63"/>
     <use x="781.201172" xlink:href="#DejaVuSans-5f"/>
     <use x="831.201172" xlink:href="#DejaVuSans-61"/>
     <use x="892.480469" xlink:href="#DejaVuSans-6e"/>
     <use x="955.859375" xlink:href="#DejaVuSans-64"/>
     <use x="1019.335938" xlink:href="#DejaVuSans-5f"/>
     <use x="1069.335938" xlink:href="#DejaVuSans-6c"/>
     <use x="1097.119141" xlink:href="#DejaVuSans-79"/>
     <use x="1156.298828" xlink:href="#DejaVuSans-6d"/>
     <use x="1253.710938" xlink:href="#DejaVuSans-70"/>
     <use x="1317.1875" xlink:href="#DejaVuSans-68"/>
     <use x="1380.566406" xlink:href="#DejaVuSans-6f"/>
     <use x="1441.748047" xlink:href="#DejaVuSans-69"/>
     <use x="1469.53125" xlink:href="#DejaVuSans-64"/>
     <use x="1533.007812" xlink:href="#DejaVuSans-5f"/>
     <use x="1583.007812" xlink:href="#DejaVuSans-74"/>
     <use x="1622.216797" xlink:href="#DejaVuSans-69"/>
     <use x="1650" xlink:href="#DejaVuSans-73"/>
     <use x="1702.099609" xlink:href="#DejaVuSans-73"/>
     <use x="1754.199219" xlink:href="#DejaVuSans-75"/>
     <use x="1817.578125" xlink:href="#DejaVuSans-65"/>
    </g>
   </g>
   <g id="text_26">
    <!-- urinary_tract -->
    <g transform="translate(316.542053 275.180736)rotate(-90)scale(0.1 -0.1)">
     <use xlink:href="#DejaVuSans-75"/>
     <use x="63.378906" xlink:href="#DejaVuSans-72"/>
     <use x="104.492188" xlink:href="#DejaVuSans-69"/>
     <use x="132.275391" xlink:href="#DejaVuSans-6e"/>
     <use x="195.654297" xlink:href="#DejaVuSans-61"/>
     <use x="256.933594" xlink:href="#DejaVuSans-72"/>
     <use x="298.046875" xlink:href="#DejaVuSans-79"/>
     <use x="357.226562" xlink:href="#DejaVuSans-5f"/>
     <use x="407.226562" xlink:href="#DejaVuSans-74"/>
     <use x="446.435547" xlink:href="#DejaVuSans-72"/>
     <use x="487.548828" xlink:href="#DejaVuSans-61"/>
     <use x="548.828125" xlink:href="#DejaVuSans-63"/>
     <use x="603.808594" xlink:href="#DejaVuSans-74"/>
    </g>
   </g>
   <g id="text_27">
    <!-- large_intestine -->
    <g transform="translate(314.109611 275.517624)rotate(-90)scale(0.1 -0.1)">
     <use xlink:href="#DejaVuSans-6c"/>
     <use x="27.783203" xlink:href="#DejaVuSans-61"/>
     <use x="89.0625" xlink:href="#DejaVuSans-72"/>
     <use x="130.160156" xlink:href="#DejaVuSans-67"/>
     <use x="193.636719" xlink:href="#DejaVuSans-65"/>
     <use x="255.160156" xlink:href="#DejaVuSans-5f"/>
     <use x="305.160156" xlink:href="#DejaVuSans-69"/>
     <use x="332.943359" xlink:href="#DejaVuSans-6e"/>
     <use x="396.322266" xlink:href="#DejaVuSans-74"/>
     <use x="435.53125" xlink:href="#DejaVuSans-65"/>
     <use x="497.054688" xlink:href="#DejaVuSans-73"/>
     <use x="549.154297" xlink:href="#DejaVuSans-74"/>
     <use x="588.363281" xlink:href="#DejaVuSans-69"/>
     <use x="616.146484" xlink:href="#DejaVuSans-6e"/>
     <use x="679.525391" xlink:href="#DejaVuSans-65"/>
    </g>
   </g>
   <g id="text_28">
    <!-- ovary -->
    <g transform="translate(310.630843 276.011967)rotate(-90)scale(0.1 -0.1)">
     <use xlink:href="#DejaVuSans-6f"/>
     <use x="61.181641" xlink:href="#DejaVuSans-76"/>
     <use x="120.361328" xlink:href="#DejaVuSans-61"/>
     <use x="181.640625" xlink:href="#DejaVuSans-72"/>
     <use x="222.753906" xlink:href="#DejaVuSans-79"/>
    </g>
   </g>
   <g id="text_29">
    <!-- central_nervous_system -->
    <g transform="translate(302.565102 277.060461)rotate(-90)scale(0.1 -0.1)">
     <use xlink:href="#DejaVuSans-63"/>
     <use x="54.980469" xlink:href="#DejaVuSans-65"/>
     <use x="116.503906" xlink:href="#DejaVuSans-6e"/>
     <use x="179.882812" xlink:href="#DejaVuSans-74"/>
     <use x="219.091797" xlink:href="#DejaVuSans-72"/>
     <use x="260.205078" xlink:href="#DejaVuSans-61"/>
     <use x="321.484375" xlink:href="#DejaVuSans-6c"/>
     <use x="349.267578" xlink:href="#DejaVuSans-5f"/>
     <use x="399.267578" xlink:href="#DejaVuSans-6e"/>
     <use x="462.646484" xlink:href="#DejaVuSans-65"/>
     <use x="524.169922" xlink:href="#DejaVuSans-72"/>
     <use x="565.283203" xlink:href="#DejaVuSans-76"/>
     <use x="624.462891" xlink:href="#DejaVuSans-6f"/>
     <use x="685.644531" xlink:href="#DejaVuSans-75"/>
     <use x="749.023438" xlink:href="#DejaVuSans-73"/>
     <use x="801.123047" xlink:href="#DejaVuSans-5f"/>
     <use x="851.123047" xlink:href="#DejaVuSans-73"/>
     <use x="903.222656" xlink:href="#DejaVuSans-79"/>
     <use x="962.402344" xlink:href="#DejaVuSans-73"/>
     <use x="1014.501953" xlink:href="#DejaVuSans-74"/>
     <use x="1053.710938" xlink:href="#DejaVuSans-65"/>
     <use x="1115.234375" xlink:href="#DejaVuSans-6d"/>
    </g>
   </g>
   <g id="text_30">
    <!-- liver -->
    <g transform="translate(282.501306 279.500297)rotate(-90)scale(0.1 -0.1)">
     <use xlink:href="#DejaVuSans-6c"/>
     <use x="27.783203" xlink:href="#DejaVuSans-69"/>
     <use x="55.566406" xlink:href="#DejaVuSans-76"/>
     <use x="114.746094" xlink:href="#DejaVuSans-65"/>
     <use x="176.269531" xlink:href="#DejaVuSans-72"/>
    </g>
   </g>
   <g id="text_31">
    <!-- stomach -->
    <g transform="translate(280.444932 279.728827)rotate(-90)scale(0.1 -0.1)">
     <use xlink:href="#DejaVuSans-73"/>
     <use x="52.099609" xlink:href="#DejaVuSans-74"/>
     <use x="91.308594" xlink:href="#DejaVuSans-6f"/>
     <use x="152.490234" xlink:href="#DejaVuSans-6d"/>
     <use x="249.902344" xlink:href="#DejaVuSans-61"/>
     <use x="311.181641" xlink:href="#DejaVuSans-63"/>
     <use x="366.162109" xlink:href="#DejaVuSans-68"/>
    </g>
   </g>
   <g id="text_32">
    <!-- soft_tissue -->
    <defs>
     <path d="M 37.109375 75.984375 
L 37.109375 68.5 
L 28.515625 68.5 
Q 23.6875 68.5 21.796875 66.546875 
Q 19.921875 64.59375 19.921875 59.515625 
L 19.921875 54.6875 
L 34.71875 54.6875 
L 34.71875 47.703125 
L 19.921875 47.703125 
L 19.921875 0 
L 10.890625 0 
L 10.890625 47.703125 
L 2.296875 47.703125 
L 2.296875 54.6875 
L 10.890625 54.6875 
L 10.890625 58.5 
Q 10.890625 67.625 15.140625 71.796875 
Q 19.390625 75.984375 28.609375 75.984375 
z
" id="DejaVuSans-66"/>
    </defs>
    <g transform="translate(275.356803 280.270373)rotate(-90)scale(0.1 -0.1)">
     <use xlink:href="#DejaVuSans-73"/>
     <use x="52.099609" xlink:href="#DejaVuSans-6f"/>
     <use x="113.28125" xlink:href="#DejaVuSans-66"/>
     <use x="148.470703" xlink:href="#DejaVuSans-74"/>
     <use x="187.679688" xlink:href="#DejaVuSans-5f"/>
     <use x="237.679688" xlink:href="#DejaVuSans-74"/>
     <use x="276.888672" xlink:href="#DejaVuSans-69"/>
     <use x="304.671875" xlink:href="#DejaVuSans-73"/>
     <use x="356.771484" xlink:href="#DejaVuSans-73"/>
     <use x="408.871094" xlink:href="#DejaVuSans-75"/>
     <use x="472.25" xlink:href="#DejaVuSans-65"/>
    </g>
   </g>
   <g id="text_33">
    <!-- lung -->
    <g transform="translate(250.768034 282.672143)rotate(-90)scale(0.1 -0.1)">
     <use xlink:href="#DejaVuSans-6c"/>
     <use x="27.783203" xlink:href="#DejaVuSans-75"/>
     <use x="91.162109" xlink:href="#DejaVuSans-6e"/>
     <use x="154.541016" xlink:href="#DejaVuSans-67"/>
    </g>
   </g>
   <g id="text_34">
    <!-- pleura -->
    <g transform="translate(238.085252 283.723287)rotate(-90)scale(0.1 -0.1)">
     <use xlink:href="#DejaVuSans-70"/>
     <use x="63.476562" xlink:href="#DejaVuSans-6c"/>
     <use x="91.259766" xlink:href="#DejaVuSans-65"/>
     <use x="152.783203" xlink:href="#DejaVuSans-75"/>
     <use x="216.162109" xlink:href="#DejaVuSans-72"/>
     <use x="257.275391" xlink:href="#DejaVuSans-61"/>
    </g>
   </g>
   <g id="text_35">
    <!-- pancreas -->
    <g transform="translate(218.547097 285.109635)rotate(-90)scale(0.1 -0.1)">
     <use xlink:href="#DejaVuSans-70"/>
     <use x="63.476562" xlink:href="#DejaVuSans-61"/>
     <use x="124.755859" xlink:href="#DejaVuSans-6e"/>
     <use x="188.134766" xlink:href="#DejaVuSans-63"/>
     <use x="243.115234" xlink:href="#DejaVuSans-72"/>
     <use x="284.197266" xlink:href="#DejaVuSans-65"/>
     <use x="345.720703" xlink:href="#DejaVuSans-61"/>
     <use x="407" xlink:href="#DejaVuSans-73"/>
    </g>
   </g>
   <g id="text_36">
    <!-- thyroid -->
    <g transform="translate(211.349679 285.552076)rotate(-90)scale(0.1 -0.1)">
     <use xlink:href="#DejaVuSans-74"/>
     <use x="39.208984" xlink:href="#DejaVuSans-68"/>
     <use x="102.587891" xlink:href="#DejaVuSans-79"/>
     <use x="161.767578" xlink:href="#DejaVuSans-72"/>
     <use x="202.849609" xlink:href="#DejaVuSans-6f"/>
     <use x="264.03125" xlink:href="#DejaVuSans-69"/>
     <use x="291.814453" xlink:href="#DejaVuSans-64"/>
    </g>
   </g>
   <g id="text_37">
    <!-- endometrium -->
    <g transform="translate(190.549712 286.633854)rotate(-90)scale(0.1 -0.1)">
     <use xlink:href="#DejaVuSans-65"/>
     <use x="61.523438" xlink:href="#DejaVuSans-6e"/>
     <use x="124.902344" xlink:href="#DejaVuSans-64"/>
     <use x="188.378906" xlink:href="#DejaVuSans-6f"/>
     <use x="249.560547" xlink:href="#DejaVuSans-6d"/>
     <use x="346.972656" xlink:href="#DejaVuSans-65"/>
     <use x="408.496094" xlink:href="#DejaVuSans-74"/>
     <use x="447.705078" xlink:href="#DejaVuSans-72"/>
     <use x="488.818359" xlink:href="#DejaVuSans-69"/>
     <use x="516.601562" xlink:href="#DejaVuSans-75"/>
     <use x="579.980469" xlink:href="#DejaVuSans-6d"/>
    </g>
   </g>
   <g id="text_38">
    <!-- Separation of Distribution of Computed CLOvEs from Null Distribution (permuted) CLOvEs -->
    <defs>
     <path d="M 53.515625 70.515625 
L 53.515625 60.890625 
Q 47.90625 63.578125 42.921875 64.890625 
Q 37.9375 66.21875 33.296875 66.21875 
Q 25.25 66.21875 20.875 63.09375 
Q 16.5 59.96875 16.5 54.203125 
Q 16.5 49.359375 19.40625 46.890625 
Q 22.3125 44.4375 30.421875 42.921875 
L 36.375 41.703125 
Q 47.40625 39.59375 52.65625 34.296875 
Q 57.90625 29 57.90625 20.125 
Q 57.90625 9.515625 50.796875 4.046875 
Q 43.703125 -1.421875 29.984375 -1.421875 
Q 24.8125 -1.421875 18.96875 -0.25 
Q 13.140625 0.921875 6.890625 3.21875 
L 6.890625 13.375 
Q 12.890625 10.015625 18.65625 8.296875 
Q 24.421875 6.59375 29.984375 6.59375 
Q 38.421875 6.59375 43.015625 9.90625 
Q 47.609375 13.234375 47.609375 19.390625 
Q 47.609375 24.75 44.3125 27.78125 
Q 41.015625 30.8125 33.5 32.328125 
L 27.484375 33.5 
Q 16.453125 35.6875 11.515625 40.375 
Q 6.59375 45.0625 6.59375 53.421875 
Q 6.59375 63.09375 13.40625 68.65625 
Q 20.21875 74.21875 32.171875 74.21875 
Q 37.3125 74.21875 42.625 73.28125 
Q 47.953125 72.359375 53.515625 70.515625 
" id="DejaVuSans-53"/>
     <path id="DejaVuSans-20"/>
     <path d="M 19.671875 64.796875 
L 19.671875 8.109375 
L 31.59375 8.109375 
Q 46.6875 8.109375 53.6875 14.9375 
Q 60.6875 21.78125 60.6875 36.53125 
Q 60.6875 51.171875 53.6875 57.984375 
Q 46.6875 64.796875 31.59375 64.796875 
z
M 9.8125 72.90625 
L 30.078125 72.90625 
Q 51.265625 72.90625 61.171875 64.09375 
Q 71.09375 55.28125 71.09375 36.53125 
Q 71.09375 17.671875 61.125 8.828125 
Q 51.171875 0 30.078125 0 
L 9.8125 0 
z
" id="DejaVuSans-44"/>
     <path d="M 64.40625 67.28125 
L 64.40625 56.890625 
Q 59.421875 61.53125 53.78125 63.8125 
Q 48.140625 66.109375 41.796875 66.109375 
Q 29.296875 66.109375 22.65625 58.46875 
Q 16.015625 50.828125 16.015625 36.375 
Q 16.015625 21.96875 22.65625 14.328125 
Q 29.296875 6.6875 41.796875 6.6875 
Q 48.140625 6.6875 53.78125 8.984375 
Q 59.421875 11.28125 64.40625 15.921875 
L 64.40625 5.609375 
Q 59.234375 2.09375 53.4375 0.328125 
Q 47.65625 -1.421875 41.21875 -1.421875 
Q 24.65625 -1.421875 15.125 8.703125 
Q 5.609375 18.84375 5.609375 36.375 
Q 5.609375 53.953125 15.125 64.078125 
Q 24.65625 74.21875 41.21875 74.21875 
Q 47.75 74.21875 53.53125 72.484375 
Q 59.328125 70.75 64.40625 67.28125 
" id="DejaVuSans-43"/>
     <path d="M 9.8125 72.90625 
L 19.671875 72.90625 
L 19.671875 8.296875 
L 55.171875 8.296875 
L 55.171875 0 
L 9.8125 0 
z
" id="DejaVuSans-4c"/>
     <path d="M 39.40625 66.21875 
Q 28.65625 66.21875 22.328125 58.203125 
Q 16.015625 50.203125 16.015625 36.375 
Q 16.015625 22.609375 22.328125 14.59375 
Q 28.65625 6.59375 39.40625 6.59375 
Q 50.140625 6.59375 56.421875 14.59375 
Q 62.703125 22.609375 62.703125 36.375 
Q 62.703125 50.203125 56.421875 58.203125 
Q 50.140625 66.21875 39.40625 66.21875 
M 39.40625 74.21875 
Q 54.734375 74.21875 63.90625 63.9375 
Q 73.09375 53.65625 73.09375 36.375 
Q 73.09375 19.140625 63.90625 8.859375 
Q 54.734375 -1.421875 39.40625 -1.421875 
Q 24.03125 -1.421875 14.8125 8.828125 
Q 5.609375 19.09375 5.609375 36.375 
Q 5.609375 53.65625 14.8125 63.9375 
Q 24.03125 74.21875 39.40625 74.21875 
" id="DejaVuSans-4f"/>
     <path d="M 9.8125 72.90625 
L 55.90625 72.90625 
L 55.90625 64.59375 
L 19.671875 64.59375 
L 19.671875 43.015625 
L 54.390625 43.015625 
L 54.390625 34.71875 
L 19.671875 34.71875 
L 19.671875 8.296875 
L 56.78125 8.296875 
L 56.78125 0 
L 9.8125 0 
z
" id="DejaVuSans-45"/>
     <path d="M 9.8125 72.90625 
L 23.09375 72.90625 
L 55.421875 11.921875 
L 55.421875 72.90625 
L 64.984375 72.90625 
L 64.984375 0 
L 51.703125 0 
L 19.390625 60.984375 
L 19.390625 0 
L 9.8125 0 
z
" id="DejaVuSans-4e"/>
    </defs>
    <g transform="translate(283.757812 37.2)scale(0.12 -0.12)">
     <use xlink:href="#DejaVuSans-53"/>
     <use x="63.476562" xlink:href="#DejaVuSans-65"/>
     <use x="125" xlink:href="#DejaVuSans-70"/>
     <use x="188.476562" xlink:href="#DejaVuSans-61"/>
     <use x="249.755859" xlink:href="#DejaVuSans-72"/>
     <use x="290.869141" xlink:href="#DejaVuSans-61"/>
     <use x="352.148438" xlink:href="#DejaVuSans-74"/>
     <use x="391.357422" xlink:href="#DejaVuSans-69"/>
     <use x="419.140625" xlink:href="#DejaVuSans-6f"/>
     <use x="480.322266" xlink:href="#DejaVuSans-6e"/>
     <use x="543.701172" xlink:href="#DejaVuSans-20"/>
     <use x="575.488281" xlink:href="#DejaVuSans-6f"/>
     <use x="636.669922" xlink:href="#DejaVuSans-66"/>
     <use x="671.875" xlink:href="#DejaVuSans-20"/>
     <use x="703.662109" xlink:href="#DejaVuSans-44"/>
     <use x="780.664062" xlink:href="#DejaVuSans-69"/>
     <use x="808.447266" xlink:href="#DejaVuSans-73"/>
     <use x="860.546875" xlink:href="#DejaVuSans-74"/>
     <use x="899.755859" xlink:href="#DejaVuSans-72"/>
     <use x="940.869141" xlink:href="#DejaVuSans-69"/>
     <use x="968.652344" xlink:href="#DejaVuSans-62"/>
     <use x="1032.128906" xlink:href="#DejaVuSans-75"/>
     <use x="1095.507812" xlink:href="#DejaVuSans-74"/>
     <use x="1134.716797" xlink:href="#DejaVuSans-69"/>
     <use x="1162.5" xlink:href="#DejaVuSans-6f"/>
     <use x="1223.681641" xlink:href="#DejaVuSans-6e"/>
     <use x="1287.060547" xlink:href="#DejaVuSans-20"/>
     <use x="1318.847656" xlink:href="#DejaVuSans-6f"/>
     <use x="1380.029297" xlink:href="#DejaVuSans-66"/>
     <use x="1415.234375" xlink:href="#DejaVuSans-20"/>
     <use x="1447.021484" xlink:href="#DejaVuSans-43"/>
     <use x="1516.845703" xlink:href="#DejaVuSans-6f"/>
     <use x="1578.027344" xlink:href="#DejaVuSans-6d"/>
     <use x="1675.439453" xlink:href="#DejaVuSans-70"/>
     <use x="1738.916016" xlink:href="#DejaVuSans-75"/>
     <use x="1802.294922" xlink:href="#DejaVuSans-74"/>
     <use x="1841.503906" xlink:href="#DejaVuSans-65"/>
     <use x="1903.027344" xlink:href="#DejaVuSans-64"/>
     <use x="1966.503906" xlink:href="#DejaVuSans-20"/>
     <use x="1998.291016" xlink:href="#DejaVuSans-43"/>
     <use x="2068.115234" xlink:href="#DejaVuSans-4c"/>
     <use x="2123.78125" xlink:href="#DejaVuSans-4f"/>
     <use x="2202.492188" xlink:href="#DejaVuSans-76"/>
     <use x="2261.671875" xlink:href="#DejaVuSans-45"/>
     <use x="2324.855469" xlink:href="#DejaVuSans-73"/>
     <use x="2376.955078" xlink:href="#DejaVuSans-20"/>
     <use x="2408.742188" xlink:href="#DejaVuSans-66"/>
     <use x="2443.947266" xlink:href="#DejaVuSans-72"/>
     <use x="2485.029297" xlink:href="#DejaVuSans-6f"/>
     <use x="2546.210938" xlink:href="#DejaVuSans-6d"/>
     <use x="2643.623047" xlink:href="#DejaVuSans-20"/>
     <use x="2675.410156" xlink:href="#DejaVuSans-4e"/>
     <use x="2750.214844" xlink:href="#DejaVuSans-75"/>
     <use x="2813.59375" xlink:href="#DejaVuSans-6c"/>
     <use x="2841.376953" xlink:href="#DejaVuSans-6c"/>
     <use x="2869.160156" xlink:href="#DejaVuSans-20"/>
     <use x="2900.947266" xlink:href="#DejaVuSans-44"/>
     <use x="2977.949219" xlink:href="#DejaVuSans-69"/>
     <use x="3005.732422" xlink:href="#DejaVuSans-73"/>
     <use x="3057.832031" xlink:href="#DejaVuSans-74"/>
     <use x="3097.041016" xlink:href="#DejaVuSans-72"/>
     <use x="3138.154297" xlink:href="#DejaVuSans-69"/>
     <use x="3165.9375" xlink:href="#DejaVuSans-62"/>
     <use x="3229.414062" xlink:href="#DejaVuSans-75"/>
     <use x="3292.792969" xlink:href="#DejaVuSans-74"/>
     <use x="3332.001953" xlink:href="#DejaVuSans-69"/>
     <use x="3359.785156" xlink:href="#DejaVuSans-6f"/>
     <use x="3420.966797" xlink:href="#DejaVuSans-6e"/>
     <use x="3484.345703" xlink:href="#DejaVuSans-20"/>
     <use x="3516.132812" xlink:href="#DejaVuSans-28"/>
     <use x="3555.146484" xlink:href="#DejaVuSans-70"/>
     <use x="3618.623047" xlink:href="#DejaVuSans-65"/>
     <use x="3680.146484" xlink:href="#DejaVuSans-72"/>
     <use x="3721.244141" xlink:href="#DejaVuSans-6d"/>
     <use x="3818.65625" xlink:href="#DejaVuSans-75"/>
     <use x="3882.035156" xlink:href="#DejaVuSans-74"/>
     <use x="3921.244141" xlink:href="#DejaVuSans-65"/>
     <use x="3982.767578" xlink:href="#DejaVuSans-64"/>
     <use x="4046.244141" xlink:href="#DejaVuSans-29"/>
     <use x="4085.257812" xlink:href="#DejaVuSans-20"/>
     <use x="4117.044922" xlink:href="#DejaVuSans-43"/>
     <use x="4186.869141" xlink:href="#DejaVuSans-4c"/>
     <use x="4242.535156" xlink:href="#DejaVuSans-4f"/>
     <use x="4321.246094" xlink:href="#DejaVuSans-76"/>
     <use x="4380.425781" xlink:href="#DejaVuSans-45"/>
     <use x="4443.609375" xlink:href="#DejaVuSans-73"/>
    </g>
   </g>
   <g id="legend_1">
    <g id="PathCollection_8">
     <defs>
      <path id="m35f7dd9a62" style="stroke:#ffffff;stroke-width:1.5;"/>
     </defs>
     <g>
      <use style="fill:#ffffff;stroke:#ffffff;stroke-width:1.5;" x="154" xlink:href="#m35f7dd9a62" y="57.173437"/>
     </g>
    </g>
    <g id="text_39">
     <!-- n samples -->
     <g transform="translate(172 59.798437)scale(0.1 -0.1)">
      <use xlink:href="#DejaVuSans-6e"/>
      <use x="63.378906" xlink:href="#DejaVuSans-20"/>
      <use x="95.166016" xlink:href="#DejaVuSans-73"/>
      <use x="147.265625" xlink:href="#DejaVuSans-61"/>
      <use x="208.544922" xlink:href="#DejaVuSans-6d"/>
      <use x="305.957031" xlink:href="#DejaVuSans-70"/>
      <use x="369.433594" xlink:href="#DejaVuSans-6c"/>
      <use x="397.216797" xlink:href="#DejaVuSans-65"/>
      <use x="458.740234" xlink:href="#DejaVuSans-73"/>
     </g>
    </g>
    <g id="PathCollection_9">
     <defs>
      <path d="M 0 2.236068 
C 0.593012 2.236068 1.161816 2.000462 1.581139 1.581139 
C 2.000462 1.161816 2.236068 0.593012 2.236068 0 
C 2.236068 -0.593012 2.000462 -1.161816 1.581139 -1.581139 
C 1.161816 -2.000462 0.593012 -2.236068 0 -2.236068 
C -0.593012 -2.236068 -1.161816 -2.000462 -1.581139 -1.581139 
C -2.000462 -1.161816 -2.236068 -0.593012 -2.236068 0 
C -2.236068 0.593012 -2.000462 1.161816 -1.581139 1.581139 
C -1.161816 2.000462 -0.593012 2.236068 0 2.236068 
z
" id="m898d2ab0b1" style="stroke:#e7c1be;"/>
     </defs>
     <g>
      <use style="fill:#e7c1be;stroke:#e7c1be;" x="154" xlink:href="#m898d2ab0b1" y="71.851562"/>
     </g>
    </g>
    <g id="text_40">
     <!-- 0 -->
     <g transform="translate(172 74.476562)scale(0.1 -0.1)">
      <use xlink:href="#DejaVuSans-30"/>
     </g>
    </g>
    <g id="PathCollection_10">
     <defs>
      <path d="M 0 6.313504 
C 1.674361 6.313504 3.28037 5.648274 4.464322 4.464322 
C 5.648274 3.28037 6.313504 1.674361 6.313504 0 
C 6.313504 -1.674361 5.648274 -3.28037 4.464322 -4.464322 
C 3.28037 -5.648274 1.674361 -6.313504 0 -6.313504 
C -1.674361 -6.313504 -3.28037 -5.648274 -4.464322 -4.464322 
C -5.648274 -3.28037 -6.313504 -1.674361 -6.313504 0 
C -6.313504 1.674361 -5.648274 3.28037 -4.464322 4.464322 
C -3.28037 5.648274 -1.674361 6.313504 0 6.313504 
z
" id="m17091dc7e7" style="stroke:#d093a4;"/>
     </defs>
     <g>
      <use style="fill:#d093a4;stroke:#d093a4;" x="154" xlink:href="#m17091dc7e7" y="86.529687"/>
     </g>
    </g>
    <g id="text_41">
     <!-- 60 -->
     <g transform="translate(172 89.154687)scale(0.1 -0.1)">
      <use xlink:href="#DejaVuSans-36"/>
      <use x="63.623047" xlink:href="#DejaVuSans-30"/>
     </g>
    </g>
    <g id="PathCollection_11">
     <defs>
      <path d="M 0 8.948955 
C 2.373291 8.948955 4.649697 8.006037 6.327867 6.327867 
C 8.006037 4.649697 8.948955 2.373291 8.948955 0 
C 8.948955 -2.373291 8.006037 -4.649697 6.327867 -6.327867 
C 4.649697 -8.006037 2.373291 -8.948955 0 -8.948955 
C -2.373291 -8.948955 -4.649697 -8.006037 -6.327867 -6.327867 
C -8.006037 -4.649697 -8.948955 -2.373291 -8.948955 0 
C -8.948955 2.373291 -8.006037 4.649697 -6.327867 6.327867 
C -4.649697 8.006037 -2.373291 8.948955 0 8.948955 
z
" id="m4deb19de39" style="stroke:#a5648d;"/>
     </defs>
     <g>
      <use style="fill:#a5648d;stroke:#a5648d;" x="154" xlink:href="#m4deb19de39" y="101.207812"/>
     </g>
    </g>
    <g id="text_42">
     <!-- 120 -->
     <g transform="translate(172 103.832812)scale(0.1 -0.1)">
      <use xlink:href="#DejaVuSans-31"/>
      <use x="63.623047" xlink:href="#DejaVuSans-32"/>
      <use x="127.246094" xlink:href="#DejaVuSans-30"/>
     </g>
    </g>
    <g id="PathCollection_12">
     <defs>
      <path d="M 0 10.968467 
C 2.908871 10.968467 5.698995 9.81276 7.755877 7.755877 
C 9.81276 5.698995 10.968467 2.908871 10.968467 0 
C 10.968467 -2.908871 9.81276 -5.698995 7.755877 -7.755877 
C 5.698995 -9.81276 2.908871 -10.968467 0 -10.968467 
C -2.908871 -10.968467 -5.698995 -9.81276 -7.755877 -7.755877 
C -9.81276 -5.698995 -10.968467 -2.908871 -10.968467 0 
C -10.968467 2.908871 -9.81276 5.698995 -7.755877 7.755877 
C -5.698995 9.81276 -2.908871 10.968467 0 10.968467 
z
" id="mc1be91e0e6" style="stroke:#6b3e6f;"/>
     </defs>
     <g>
      <use style="fill:#6b3e6f;stroke:#6b3e6f;" x="154" xlink:href="#mc1be91e0e6" y="115.885937"/>
     </g>
    </g>
    <g id="text_43">
     <!-- 180 -->
     <g transform="translate(172 118.510937)scale(0.1 -0.1)">
      <use xlink:href="#DejaVuSans-31"/>
      <use x="63.623047" xlink:href="#DejaVuSans-38"/>
      <use x="127.246094" xlink:href="#DejaVuSans-30"/>
     </g>
    </g>
    <g id="PathCollection_13">
     <defs>
      <path d="M 0 11.18034 
C 2.965061 11.18034 5.80908 10.002309 7.905694 7.905694 
C 10.002309 5.80908 11.18034 2.965061 11.18034 0 
C 11.18034 -2.965061 10.002309 -5.80908 7.905694 -7.905694 
C 5.80908 -10.002309 2.965061 -11.18034 0 -11.18034 
C -2.965061 -11.18034 -5.80908 -10.002309 -7.905694 -7.905694 
C -10.002309 -5.80908 -11.18034 -2.965061 -11.18034 0 
C -11.18034 2.965061 -10.002309 5.80908 -7.905694 7.905694 
C -5.80908 10.002309 -2.965061 11.18034 0 11.18034 
z
" id="mced0bda4b8" style="stroke:#643a6b;"/>
     </defs>
     <g>
      <use style="fill:#643a6b;stroke:#643a6b;" x="154" xlink:href="#mced0bda4b8" y="130.564062"/>
     </g>
    </g>
    <g id="text_44">
     <!-- 240 -->
     <g transform="translate(172 133.189062)scale(0.1 -0.1)">
      <use xlink:href="#DejaVuSans-32"/>
      <use x="63.623047" xlink:href="#DejaVuSans-34"/>
      <use x="127.246094" xlink:href="#DejaVuSans-30"/>
     </g>
    </g>
   </g>
  </g>
 </g>
 <defs>
  <clipPath id="p38597e03d4">
   <rect height="271.8" width="837" x="135" y="43.2"/>
  </clipPath>
 </defs>
</svg>
